G04 #@! TF.GenerationSoftware,KiCad,Pcbnew,(6.0.2)*
G04 #@! TF.CreationDate,2023-01-22T22:48:29-05:00*
G04 #@! TF.ProjectId,Interface-PCB,496e7465-7266-4616-9365-2d5043422e6b,1.0*
G04 #@! TF.SameCoordinates,Original*
G04 #@! TF.FileFunction,Copper,L2,Bot*
G04 #@! TF.FilePolarity,Positive*
%FSLAX46Y46*%
G04 Gerber Fmt 4.6, Leading zero omitted, Abs format (unit mm)*
G04 Created by KiCad (PCBNEW (6.0.2)) date 2023-01-22 22:48:29*
%MOMM*%
%LPD*%
G01*
G04 APERTURE LIST*
G04 Aperture macros list*
%AMRoundRect*
0 Rectangle with rounded corners*
0 $1 Rounding radius*
0 $2 $3 $4 $5 $6 $7 $8 $9 X,Y pos of 4 corners*
0 Add a 4 corners polygon primitive as box body*
4,1,4,$2,$3,$4,$5,$6,$7,$8,$9,$2,$3,0*
0 Add four circle primitives for the rounded corners*
1,1,$1+$1,$2,$3*
1,1,$1+$1,$4,$5*
1,1,$1+$1,$6,$7*
1,1,$1+$1,$8,$9*
0 Add four rect primitives between the rounded corners*
20,1,$1+$1,$2,$3,$4,$5,0*
20,1,$1+$1,$4,$5,$6,$7,0*
20,1,$1+$1,$6,$7,$8,$9,0*
20,1,$1+$1,$8,$9,$2,$3,0*%
G04 Aperture macros list end*
G04 #@! TA.AperFunction,ComponentPad*
%ADD10R,1.600000X1.600000*%
G04 #@! TD*
G04 #@! TA.AperFunction,ComponentPad*
%ADD11O,1.600000X1.600000*%
G04 #@! TD*
G04 #@! TA.AperFunction,ComponentPad*
%ADD12R,2.000000X2.000000*%
G04 #@! TD*
G04 #@! TA.AperFunction,ComponentPad*
%ADD13C,2.000000*%
G04 #@! TD*
G04 #@! TA.AperFunction,ComponentPad*
%ADD14C,1.600000*%
G04 #@! TD*
G04 #@! TA.AperFunction,ComponentPad*
%ADD15R,1.700000X1.700000*%
G04 #@! TD*
G04 #@! TA.AperFunction,ComponentPad*
%ADD16O,1.700000X1.700000*%
G04 #@! TD*
G04 #@! TA.AperFunction,ComponentPad*
%ADD17C,1.700000*%
G04 #@! TD*
G04 #@! TA.AperFunction,ComponentPad*
%ADD18C,6.400000*%
G04 #@! TD*
G04 #@! TA.AperFunction,ComponentPad*
%ADD19R,3.500000X3.500000*%
G04 #@! TD*
G04 #@! TA.AperFunction,ComponentPad*
%ADD20RoundRect,0.750000X-0.750000X-1.000000X0.750000X-1.000000X0.750000X1.000000X-0.750000X1.000000X0*%
G04 #@! TD*
G04 #@! TA.AperFunction,ComponentPad*
%ADD21RoundRect,0.875000X-0.875000X-0.875000X0.875000X-0.875000X0.875000X0.875000X-0.875000X0.875000X0*%
G04 #@! TD*
G04 #@! TA.AperFunction,ComponentPad*
%ADD22RoundRect,0.750000X0.750000X1.000000X-0.750000X1.000000X-0.750000X-1.000000X0.750000X-1.000000X0*%
G04 #@! TD*
G04 #@! TA.AperFunction,ComponentPad*
%ADD23RoundRect,0.875000X0.875000X0.875000X-0.875000X0.875000X-0.875000X-0.875000X0.875000X-0.875000X0*%
G04 #@! TD*
G04 #@! TA.AperFunction,ComponentPad*
%ADD24RoundRect,0.750000X1.000000X-0.750000X1.000000X0.750000X-1.000000X0.750000X-1.000000X-0.750000X0*%
G04 #@! TD*
G04 #@! TA.AperFunction,ComponentPad*
%ADD25RoundRect,0.875000X0.875000X-0.875000X0.875000X0.875000X-0.875000X0.875000X-0.875000X-0.875000X0*%
G04 #@! TD*
G04 #@! TA.AperFunction,ViaPad*
%ADD26C,0.800000*%
G04 #@! TD*
G04 #@! TA.AperFunction,ViaPad*
%ADD27C,1.000000*%
G04 #@! TD*
G04 #@! TA.AperFunction,Conductor*
%ADD28C,0.300000*%
G04 #@! TD*
G04 #@! TA.AperFunction,Conductor*
%ADD29C,1.250000*%
G04 #@! TD*
G04 APERTURE END LIST*
D10*
X120000000Y-60960000D03*
D11*
X120000000Y-58420000D03*
X120000000Y-55880000D03*
X120000000Y-53340000D03*
X120000000Y-50800000D03*
X120000000Y-48260000D03*
X120000000Y-45720000D03*
X120000000Y-43180000D03*
X120000000Y-40640000D03*
X112380000Y-40640000D03*
X112380000Y-43180000D03*
X112380000Y-45720000D03*
X112380000Y-48260000D03*
X112380000Y-50800000D03*
X112380000Y-53340000D03*
X112380000Y-55880000D03*
X112380000Y-58420000D03*
X112380000Y-60960000D03*
D12*
X164410000Y-115500000D03*
D13*
X157590000Y-115500000D03*
D14*
X139820000Y-61280000D03*
D11*
X149980000Y-61280000D03*
D14*
X187420000Y-133000000D03*
D11*
X197580000Y-133000000D03*
D14*
X143515000Y-104010000D03*
D11*
X143515000Y-114170000D03*
D15*
X77380000Y-98610000D03*
D16*
X77380000Y-101150000D03*
X77380000Y-103690000D03*
X77380000Y-106230000D03*
X77380000Y-108770000D03*
X77380000Y-111310000D03*
X77380000Y-113850000D03*
X77380000Y-116390000D03*
D17*
X92620000Y-98610000D03*
D16*
X92620000Y-101150000D03*
X92620000Y-103690000D03*
X92620000Y-106230000D03*
X92620000Y-108770000D03*
X92620000Y-111310000D03*
X92620000Y-113850000D03*
X92620000Y-116390000D03*
D18*
X65000000Y-160000000D03*
D14*
X156920000Y-132500000D03*
D11*
X167080000Y-132500000D03*
D14*
X139820000Y-76520000D03*
D11*
X149980000Y-76520000D03*
D19*
X104000000Y-41000000D03*
D20*
X98000000Y-41000000D03*
D21*
X101000000Y-45700000D03*
D14*
X123700000Y-40640000D03*
X123700000Y-45720000D03*
X139820000Y-43500000D03*
D11*
X149980000Y-43500000D03*
D14*
X139820000Y-46040000D03*
D11*
X149980000Y-46040000D03*
D15*
X157500000Y-145000000D03*
D16*
X160040000Y-145000000D03*
X162580000Y-145000000D03*
D14*
X192080000Y-144000000D03*
D11*
X181920000Y-144000000D03*
D15*
X65000000Y-62500000D03*
D16*
X65000000Y-59960000D03*
X65000000Y-57420000D03*
X65000000Y-54880000D03*
X65000000Y-52340000D03*
D14*
X135895000Y-104010000D03*
D11*
X135895000Y-114170000D03*
D15*
X137220000Y-40950000D03*
D16*
X137220000Y-43490000D03*
X137220000Y-46030000D03*
X137220000Y-48570000D03*
X137220000Y-51110000D03*
X137220000Y-53650000D03*
X137220000Y-56190000D03*
X137220000Y-58730000D03*
X137220000Y-61270000D03*
X137220000Y-63810000D03*
X137220000Y-66350000D03*
X137220000Y-68890000D03*
X137220000Y-71430000D03*
X137220000Y-73970000D03*
X137220000Y-76510000D03*
X137220000Y-79050000D03*
X152460000Y-68890000D03*
X152460000Y-66350000D03*
X152460000Y-63810000D03*
X152460000Y-61270000D03*
X152460000Y-58730000D03*
X152460000Y-56190000D03*
X152460000Y-53650000D03*
D17*
X152460000Y-51110000D03*
D15*
X105000000Y-160000000D03*
D16*
X107540000Y-160000000D03*
X110080000Y-160000000D03*
D18*
X65000000Y-40000000D03*
D10*
X120000000Y-90000000D03*
D11*
X120000000Y-87460000D03*
X120000000Y-84920000D03*
X120000000Y-82380000D03*
X120000000Y-79840000D03*
X120000000Y-77300000D03*
X120000000Y-74760000D03*
X120000000Y-72220000D03*
X120000000Y-69680000D03*
X112380000Y-69680000D03*
X112380000Y-72220000D03*
X112380000Y-74760000D03*
X112380000Y-77300000D03*
X112380000Y-79840000D03*
X112380000Y-82380000D03*
X112380000Y-84920000D03*
X112380000Y-87460000D03*
X112380000Y-90000000D03*
D14*
X139820000Y-71440000D03*
D11*
X149980000Y-71440000D03*
D15*
X104920000Y-145000000D03*
D16*
X107460000Y-145000000D03*
X110000000Y-145000000D03*
D14*
X139820000Y-51120000D03*
D11*
X149980000Y-51120000D03*
D15*
X122500000Y-160000000D03*
D16*
X125040000Y-160000000D03*
X127580000Y-160000000D03*
D14*
X139820000Y-66360000D03*
D11*
X149980000Y-66360000D03*
D15*
X180000000Y-120000000D03*
D16*
X177460000Y-120000000D03*
X180000000Y-117460000D03*
X177460000Y-117460000D03*
X180000000Y-114920000D03*
X177460000Y-114920000D03*
X180000000Y-112380000D03*
X177460000Y-112380000D03*
X180000000Y-109840000D03*
X177460000Y-109840000D03*
X180000000Y-107300000D03*
X177460000Y-107300000D03*
X180000000Y-104760000D03*
X177460000Y-104760000D03*
X180000000Y-102220000D03*
X177460000Y-102220000D03*
X180000000Y-99680000D03*
X177460000Y-99680000D03*
X180000000Y-97140000D03*
X177460000Y-97140000D03*
X180000000Y-94600000D03*
X177460000Y-94600000D03*
X180000000Y-92060000D03*
X177460000Y-92060000D03*
X180000000Y-89520000D03*
X177460000Y-89520000D03*
X180000000Y-86980000D03*
X177460000Y-86980000D03*
X180000000Y-84440000D03*
X177460000Y-84440000D03*
X180000000Y-81900000D03*
X177460000Y-81900000D03*
X180000000Y-79360000D03*
X177460000Y-79360000D03*
X180000000Y-76820000D03*
X177460000Y-76820000D03*
X180000000Y-74280000D03*
X177460000Y-74280000D03*
X180000000Y-71740000D03*
X177460000Y-71740000D03*
D15*
X140000000Y-160000000D03*
D16*
X142540000Y-160000000D03*
X145080000Y-160000000D03*
D15*
X157500000Y-160000000D03*
D16*
X160040000Y-160000000D03*
X162580000Y-160000000D03*
D14*
X133355000Y-104010000D03*
D11*
X133355000Y-114170000D03*
D14*
X170000000Y-157580000D03*
D11*
X170000000Y-147420000D03*
D19*
X185000000Y-50000000D03*
D22*
X191000000Y-50000000D03*
D23*
X188000000Y-45300000D03*
D14*
X139820000Y-58740000D03*
D11*
X149980000Y-58740000D03*
D14*
X139820000Y-40960000D03*
D11*
X149980000Y-40960000D03*
D15*
X184975000Y-64525000D03*
D16*
X184975000Y-61985000D03*
X184975000Y-59445000D03*
D14*
X124625000Y-127810000D03*
X124625000Y-122730000D03*
D15*
X122500000Y-145000000D03*
D16*
X125040000Y-145000000D03*
X127580000Y-145000000D03*
D14*
X123700000Y-69680000D03*
X123700000Y-74760000D03*
X139820000Y-68900000D03*
D11*
X149980000Y-68900000D03*
D14*
X138435000Y-104010000D03*
D11*
X138435000Y-114170000D03*
D10*
X128275000Y-127810000D03*
D11*
X130815000Y-127810000D03*
X133355000Y-127810000D03*
X135895000Y-127810000D03*
X138435000Y-127810000D03*
X140975000Y-127810000D03*
X143515000Y-127810000D03*
X146055000Y-127810000D03*
X148595000Y-127810000D03*
X151135000Y-127810000D03*
X151135000Y-120190000D03*
X148595000Y-120190000D03*
X146055000Y-120190000D03*
X143515000Y-120190000D03*
X140975000Y-120190000D03*
X138435000Y-120190000D03*
X135895000Y-120190000D03*
X133355000Y-120190000D03*
X130815000Y-120190000D03*
X128275000Y-120190000D03*
D19*
X85000000Y-150000000D03*
D24*
X85000000Y-156000000D03*
D25*
X89700000Y-153000000D03*
D15*
X65000000Y-85000000D03*
D16*
X65000000Y-82460000D03*
X65000000Y-79920000D03*
X65000000Y-77380000D03*
X65000000Y-74840000D03*
D14*
X146055000Y-104010000D03*
D11*
X146055000Y-114170000D03*
D18*
X195000000Y-40000000D03*
D14*
X139820000Y-56200000D03*
D11*
X149980000Y-56200000D03*
D14*
X90000000Y-91500000D03*
D11*
X100160000Y-91500000D03*
D14*
X139820000Y-48580000D03*
D11*
X149980000Y-48580000D03*
D14*
X140975000Y-104010000D03*
D11*
X140975000Y-114170000D03*
D14*
X139820000Y-53660000D03*
D11*
X149980000Y-53660000D03*
D14*
X192080000Y-139000000D03*
D11*
X181920000Y-139000000D03*
D14*
X139820000Y-73980000D03*
D11*
X149980000Y-73980000D03*
D18*
X195000000Y-160000000D03*
D14*
X139820000Y-79060000D03*
D11*
X149980000Y-79060000D03*
D15*
X140000000Y-145000000D03*
D16*
X142540000Y-145000000D03*
X145080000Y-145000000D03*
D14*
X139820000Y-63820000D03*
D11*
X149980000Y-63820000D03*
D15*
X195000000Y-120000000D03*
D16*
X192460000Y-120000000D03*
X195000000Y-117460000D03*
X192460000Y-117460000D03*
X195000000Y-114920000D03*
X192460000Y-114920000D03*
X195000000Y-112380000D03*
X192460000Y-112380000D03*
X195000000Y-109840000D03*
X192460000Y-109840000D03*
X195000000Y-107300000D03*
X192460000Y-107300000D03*
X195000000Y-104760000D03*
X192460000Y-104760000D03*
X195000000Y-102220000D03*
X192460000Y-102220000D03*
X195000000Y-99680000D03*
X192460000Y-99680000D03*
X195000000Y-97140000D03*
X192460000Y-97140000D03*
X195000000Y-94600000D03*
X192460000Y-94600000D03*
X195000000Y-92060000D03*
X192460000Y-92060000D03*
X195000000Y-89520000D03*
X192460000Y-89520000D03*
X195000000Y-86980000D03*
X192460000Y-86980000D03*
X195000000Y-84440000D03*
X192460000Y-84440000D03*
X195000000Y-81900000D03*
X192460000Y-81900000D03*
X195000000Y-79360000D03*
X192460000Y-79360000D03*
X195000000Y-76820000D03*
X192460000Y-76820000D03*
X195000000Y-74280000D03*
X192460000Y-74280000D03*
X195000000Y-71740000D03*
X192460000Y-71740000D03*
D15*
X77380000Y-126110000D03*
D16*
X77380000Y-128650000D03*
X77380000Y-131190000D03*
X77380000Y-133730000D03*
X77380000Y-136270000D03*
X77380000Y-138810000D03*
X77380000Y-141350000D03*
X77380000Y-143890000D03*
D17*
X92620000Y-126110000D03*
D16*
X92620000Y-128650000D03*
X92620000Y-131190000D03*
X92620000Y-133730000D03*
X92620000Y-136270000D03*
X92620000Y-138810000D03*
X92620000Y-141350000D03*
X92620000Y-143890000D03*
D26*
X168000000Y-106000000D03*
X163800000Y-126200000D03*
X167000000Y-112000000D03*
D27*
X176000000Y-147500000D03*
X156000000Y-51000000D03*
X195000000Y-124500000D03*
X194985000Y-61985000D03*
X72000000Y-91500000D03*
X72000000Y-67000000D03*
X81000000Y-91500000D03*
X72000000Y-50000000D03*
D26*
X141000000Y-136000000D03*
X141000000Y-133000000D03*
X133500000Y-136000000D03*
X133500000Y-133000000D03*
X138500000Y-133000000D03*
X138500000Y-136000000D03*
X143500000Y-136000000D03*
X143500000Y-133000000D03*
X131000000Y-133000000D03*
X131000000Y-136000000D03*
X136000000Y-136000000D03*
X136000000Y-133000000D03*
X182000000Y-76750000D03*
X182000000Y-74000000D03*
X182000000Y-94400000D03*
X182000000Y-99500000D03*
X182000000Y-102000000D03*
X182000000Y-91800000D03*
X182000000Y-86750000D03*
X89500000Y-132000000D03*
X181800000Y-107000000D03*
X89500000Y-135500000D03*
X89500000Y-104500000D03*
X89500000Y-108000000D03*
X169744622Y-78255378D03*
X167500000Y-78250000D03*
X181750000Y-112000000D03*
X158250000Y-128400000D03*
X182000000Y-81750000D03*
X177460000Y-133000000D03*
D27*
X181800000Y-119649989D03*
X181750000Y-117250000D03*
D28*
X166500000Y-115500000D02*
X164410000Y-115500000D01*
X164410000Y-125590000D02*
X164410000Y-115500000D01*
X167000000Y-112000000D02*
X167000000Y-115000000D01*
X193650000Y-103450000D02*
X195000000Y-104800000D01*
X181350000Y-103450000D02*
X193650000Y-103450000D01*
X167000000Y-115000000D02*
X166500000Y-115500000D01*
X180000000Y-104800000D02*
X181350000Y-103450000D01*
X169000000Y-106000000D02*
X171550000Y-103450000D01*
X178690000Y-103450000D02*
X180000000Y-104760000D01*
X168000000Y-106000000D02*
X169000000Y-106000000D01*
X163800000Y-126200000D02*
X164410000Y-125590000D01*
X171550000Y-103450000D02*
X178690000Y-103450000D01*
D29*
X184975000Y-61985000D02*
X194985000Y-61985000D01*
X180985000Y-61985000D02*
X170000000Y-51000000D01*
X157500000Y-145000000D02*
X157500000Y-147500000D01*
X157500000Y-147500000D02*
X157500000Y-160000000D01*
X82650000Y-101150000D02*
X77380000Y-101150000D01*
X128275000Y-133025000D02*
X128275000Y-127810000D01*
X85000000Y-106230000D02*
X85000000Y-103500000D01*
X189000000Y-139000000D02*
X189000000Y-144000000D01*
X85000000Y-129000000D02*
X85000000Y-131000000D01*
X155890000Y-51110000D02*
X152460000Y-51110000D01*
X85000000Y-106000000D02*
X85000000Y-129000000D01*
X106270000Y-133730000D02*
X112190000Y-127810000D01*
X157580000Y-147420000D02*
X157500000Y-147500000D01*
X112190000Y-127810000D02*
X124625000Y-127810000D01*
X157500000Y-145000000D02*
X157500000Y-138250000D01*
X193000000Y-135000000D02*
X189000000Y-139000000D01*
X156000000Y-51000000D02*
X155890000Y-51110000D01*
X189000000Y-145080000D02*
X186580000Y-147500000D01*
X92620000Y-106230000D02*
X85270000Y-106230000D01*
X195000000Y-124500000D02*
X193000000Y-126500000D01*
X170000000Y-51000000D02*
X156000000Y-51000000D01*
X189000000Y-144000000D02*
X189000000Y-145080000D01*
X85000000Y-103500000D02*
X82650000Y-101150000D01*
X129750000Y-134500000D02*
X128275000Y-133025000D01*
X180985000Y-61985000D02*
X184975000Y-61985000D01*
X170000000Y-147420000D02*
X157580000Y-147420000D01*
X189000000Y-144000000D02*
X192080000Y-144000000D01*
X193000000Y-126500000D02*
X193000000Y-135000000D01*
X92620000Y-133730000D02*
X106270000Y-133730000D01*
X186580000Y-147500000D02*
X176000000Y-147500000D01*
X87730000Y-133730000D02*
X85000000Y-131000000D01*
X124625000Y-127810000D02*
X128275000Y-127810000D01*
X157500000Y-138250000D02*
X153750000Y-134500000D01*
X92620000Y-133730000D02*
X87730000Y-133730000D01*
X84650000Y-128650000D02*
X85000000Y-129000000D01*
X153750000Y-134500000D02*
X129750000Y-134500000D01*
X128275000Y-127810000D02*
X128275000Y-120190000D01*
X77380000Y-128650000D02*
X84650000Y-128650000D01*
X120000000Y-40640000D02*
X123700000Y-40640000D01*
X76000000Y-37000000D02*
X72000000Y-41000000D01*
X77380000Y-98610000D02*
X72390000Y-98610000D01*
X72000000Y-126000000D02*
X72000000Y-91500000D01*
X72110000Y-126110000D02*
X77380000Y-126110000D01*
X120000000Y-68000000D02*
X120000000Y-69680000D01*
X119000000Y-37000000D02*
X104000000Y-37000000D01*
X72000000Y-91500000D02*
X81000000Y-91500000D01*
X72000000Y-41000000D02*
X72000000Y-50000000D01*
X72000000Y-126000000D02*
X72110000Y-126110000D01*
X120000000Y-40640000D02*
X120000000Y-38000000D01*
X72000000Y-148000000D02*
X74000000Y-150000000D01*
X120000000Y-38000000D02*
X119000000Y-37000000D01*
X104000000Y-41000000D02*
X104000000Y-37000000D01*
X120000000Y-69680000D02*
X123700000Y-69680000D01*
X119000000Y-67000000D02*
X120000000Y-68000000D01*
X74000000Y-150000000D02*
X85000000Y-150000000D01*
X104000000Y-37000000D02*
X76000000Y-37000000D01*
X119000000Y-67000000D02*
X72000000Y-67000000D01*
X72000000Y-148000000D02*
X72000000Y-126000000D01*
X195250000Y-139000000D02*
X195250000Y-127750000D01*
X176500000Y-153500000D02*
X178000000Y-152000000D01*
X140000000Y-160000000D02*
X140000000Y-163000000D01*
X105000000Y-160000000D02*
X105000000Y-162000000D01*
X185000000Y-54500000D02*
X184975000Y-54525000D01*
X184975000Y-54525000D02*
X184975000Y-59445000D01*
X178000000Y-152000000D02*
X188000000Y-152000000D01*
X139000000Y-163000000D02*
X140000000Y-163000000D01*
X123000000Y-163000000D02*
X139000000Y-163000000D01*
X174000000Y-163000000D02*
X176500000Y-160500000D01*
X198000000Y-125000000D02*
X198000000Y-61500000D01*
X139000000Y-163000000D02*
X174000000Y-163000000D01*
X195250000Y-127750000D02*
X198000000Y-125000000D01*
X185000000Y-54500000D02*
X185000000Y-50000000D01*
X198000000Y-61500000D02*
X195945000Y-59445000D01*
X188000000Y-152000000D02*
X195250000Y-144750000D01*
X122500000Y-162500000D02*
X123000000Y-163000000D01*
X195250000Y-144750000D02*
X195250000Y-139000000D01*
X122500000Y-145000000D02*
X122500000Y-160000000D01*
X104920000Y-159920000D02*
X105000000Y-160000000D01*
X105000000Y-162000000D02*
X106000000Y-163000000D01*
X140000000Y-145000000D02*
X140000000Y-160000000D01*
X195945000Y-59445000D02*
X184975000Y-59445000D01*
X104920000Y-145000000D02*
X104920000Y-159920000D01*
X106000000Y-163000000D02*
X123000000Y-163000000D01*
X122500000Y-160000000D02*
X122500000Y-162500000D01*
X192080000Y-139000000D02*
X195250000Y-139000000D01*
X176500000Y-160500000D02*
X176500000Y-153500000D01*
D28*
X140975000Y-127810000D02*
X140975000Y-132975000D01*
X142540000Y-145000000D02*
X142540000Y-142040000D01*
X141000000Y-140500000D02*
X141000000Y-136000000D01*
X142540000Y-142040000D02*
X141000000Y-140500000D01*
X140975000Y-132975000D02*
X141000000Y-133000000D01*
X116000000Y-142000000D02*
X118500000Y-139500000D01*
X107540000Y-160000000D02*
X107540000Y-156460000D01*
X107540000Y-156460000D02*
X109000000Y-155000000D01*
X118500000Y-139500000D02*
X131500000Y-139500000D01*
X133500000Y-133000000D02*
X133355000Y-132855000D01*
X133355000Y-132855000D02*
X133355000Y-127810000D01*
X109000000Y-155000000D02*
X114000000Y-155000000D01*
X133500000Y-137500000D02*
X133500000Y-136000000D01*
X114000000Y-155000000D02*
X116000000Y-153000000D01*
X116000000Y-153000000D02*
X116000000Y-142000000D01*
X131500000Y-139500000D02*
X133500000Y-137500000D01*
X138435000Y-132935000D02*
X138500000Y-133000000D01*
X138435000Y-127810000D02*
X138435000Y-132935000D01*
X125040000Y-156960000D02*
X127000000Y-155000000D01*
X127000000Y-155000000D02*
X132500000Y-155000000D01*
X134500000Y-153000000D02*
X134500000Y-143500000D01*
X132500000Y-155000000D02*
X134500000Y-153000000D01*
X134500000Y-143500000D02*
X138500000Y-139500000D01*
X125040000Y-160000000D02*
X125040000Y-156960000D01*
X138500000Y-139500000D02*
X138500000Y-136000000D01*
X142540000Y-156960000D02*
X148500000Y-151000000D01*
X143515000Y-132985000D02*
X143500000Y-133000000D01*
X143500000Y-139500000D02*
X143500000Y-136000000D01*
X143515000Y-127810000D02*
X143515000Y-132985000D01*
X148500000Y-144500000D02*
X143500000Y-139500000D01*
X142540000Y-160000000D02*
X142540000Y-156960000D01*
X148500000Y-151000000D02*
X148500000Y-144500000D01*
X131000000Y-133000000D02*
X130815000Y-132815000D01*
X130815000Y-132815000D02*
X130815000Y-127810000D01*
X109500000Y-137000000D02*
X107460000Y-139040000D01*
X107460000Y-139040000D02*
X107460000Y-145000000D01*
X131000000Y-136000000D02*
X130000000Y-137000000D01*
X130000000Y-137000000D02*
X109500000Y-137000000D01*
X135895000Y-132895000D02*
X136000000Y-133000000D01*
X125040000Y-142460000D02*
X125040000Y-145000000D01*
X136000000Y-138000000D02*
X132500000Y-141500000D01*
X132500000Y-141500000D02*
X126000000Y-141500000D01*
X135895000Y-127810000D02*
X135895000Y-132895000D01*
X126000000Y-141500000D02*
X125040000Y-142460000D01*
X136000000Y-136000000D02*
X136000000Y-138000000D01*
X146055000Y-120190000D02*
X146055000Y-114170000D01*
X143515000Y-120190000D02*
X143515000Y-114170000D01*
X140975000Y-120190000D02*
X140975000Y-114170000D01*
X138435000Y-120190000D02*
X138435000Y-114170000D01*
X135895000Y-120190000D02*
X135895000Y-114170000D01*
X133355000Y-120190000D02*
X133355000Y-114170000D01*
X135010000Y-76510000D02*
X137220000Y-76510000D01*
X137220000Y-76510000D02*
X139810000Y-76510000D01*
X121500000Y-90000000D02*
X135000000Y-76500000D01*
X135000000Y-76500000D02*
X135010000Y-76510000D01*
X139810000Y-76510000D02*
X139820000Y-76520000D01*
X120000000Y-90000000D02*
X121500000Y-90000000D01*
X121540000Y-87460000D02*
X135030000Y-73970000D01*
X139810000Y-73970000D02*
X139820000Y-73980000D01*
X137220000Y-73970000D02*
X139810000Y-73970000D01*
X120000000Y-87460000D02*
X121540000Y-87460000D01*
X135030000Y-73970000D02*
X137220000Y-73970000D01*
X120000000Y-84920000D02*
X121580000Y-84920000D01*
X121580000Y-84920000D02*
X135070000Y-71430000D01*
X135070000Y-71430000D02*
X137220000Y-71430000D01*
X137220000Y-71430000D02*
X139810000Y-71430000D01*
X139810000Y-71430000D02*
X139820000Y-71440000D01*
X135110000Y-68890000D02*
X137220000Y-68890000D01*
X137220000Y-68890000D02*
X139810000Y-68890000D01*
X121620000Y-82380000D02*
X135110000Y-68890000D01*
X120000000Y-82380000D02*
X121620000Y-82380000D01*
X139810000Y-68890000D02*
X139820000Y-68900000D01*
X121660000Y-79840000D02*
X135150000Y-66350000D01*
X120000000Y-79840000D02*
X121660000Y-79840000D01*
X137220000Y-66350000D02*
X139810000Y-66350000D01*
X139810000Y-66350000D02*
X139820000Y-66360000D01*
X135150000Y-66350000D02*
X137220000Y-66350000D01*
X107840000Y-79840000D02*
X112380000Y-79840000D01*
X65000000Y-74840000D02*
X102840000Y-74840000D01*
X102840000Y-74840000D02*
X107840000Y-79840000D01*
X106380000Y-82380000D02*
X112380000Y-82380000D01*
X65000000Y-77380000D02*
X101380000Y-77380000D01*
X101380000Y-77380000D02*
X106380000Y-82380000D01*
X104920000Y-84920000D02*
X112380000Y-84920000D01*
X99920000Y-79920000D02*
X104920000Y-84920000D01*
X65000000Y-79920000D02*
X99920000Y-79920000D01*
X103460000Y-87460000D02*
X112380000Y-87460000D01*
X65000000Y-82460000D02*
X98460000Y-82460000D01*
X98460000Y-82460000D02*
X103460000Y-87460000D01*
X102000000Y-90000000D02*
X112380000Y-90000000D01*
X65000000Y-85000000D02*
X97000000Y-85000000D01*
X97000000Y-85000000D02*
X102000000Y-90000000D01*
X120000000Y-60960000D02*
X127960000Y-60960000D01*
X127960000Y-60960000D02*
X130810000Y-63810000D01*
X130810000Y-63810000D02*
X137220000Y-63810000D01*
X137220000Y-63810000D02*
X139810000Y-63810000D01*
X139810000Y-63810000D02*
X139820000Y-63820000D01*
X139810000Y-61270000D02*
X139820000Y-61280000D01*
X131270000Y-61270000D02*
X137220000Y-61270000D01*
X137220000Y-61270000D02*
X139810000Y-61270000D01*
X120000000Y-58420000D02*
X128420000Y-58420000D01*
X128420000Y-58420000D02*
X131270000Y-61270000D01*
X139810000Y-58730000D02*
X139820000Y-58740000D01*
X120000000Y-55880000D02*
X128880000Y-55880000D01*
X131730000Y-58730000D02*
X137220000Y-58730000D01*
X137220000Y-58730000D02*
X139810000Y-58730000D01*
X128880000Y-55880000D02*
X131730000Y-58730000D01*
X120000000Y-53340000D02*
X129340000Y-53340000D01*
X129340000Y-53340000D02*
X132190000Y-56190000D01*
X132190000Y-56190000D02*
X137220000Y-56190000D01*
X139810000Y-56190000D02*
X139820000Y-56200000D01*
X137220000Y-56190000D02*
X139810000Y-56190000D01*
X137220000Y-53650000D02*
X139810000Y-53650000D01*
X129800000Y-50800000D02*
X132650000Y-53650000D01*
X132650000Y-53650000D02*
X137220000Y-53650000D01*
X139810000Y-53650000D02*
X139820000Y-53660000D01*
X120000000Y-50800000D02*
X129800000Y-50800000D01*
X65000000Y-52340000D02*
X100660000Y-52340000D01*
X100660000Y-52340000D02*
X102200000Y-50800000D01*
X102200000Y-50800000D02*
X112380000Y-50800000D01*
X103160000Y-53340000D02*
X112380000Y-53340000D01*
X101620000Y-54880000D02*
X103160000Y-53340000D01*
X65000000Y-54880000D02*
X101620000Y-54880000D01*
X104120000Y-55880000D02*
X102580000Y-57420000D01*
X102580000Y-57420000D02*
X65000000Y-57420000D01*
X112380000Y-55880000D02*
X104120000Y-55880000D01*
X112380000Y-58420000D02*
X105330000Y-58420000D01*
X105330000Y-58420000D02*
X103790000Y-59960000D01*
X103790000Y-59960000D02*
X65000000Y-59960000D01*
X106540000Y-60960000D02*
X105000000Y-62500000D01*
X112380000Y-60960000D02*
X106540000Y-60960000D01*
X105000000Y-62500000D02*
X65000000Y-62500000D01*
X170000000Y-157580000D02*
X160920000Y-157580000D01*
X180000000Y-112400000D02*
X181300000Y-111100000D01*
X193700000Y-111100000D02*
X195000000Y-112400000D01*
X175975000Y-113650000D02*
X178730000Y-113650000D01*
X170000000Y-157580000D02*
X172920000Y-157580000D01*
X174500000Y-115125000D02*
X175975000Y-113650000D01*
X181300000Y-111100000D02*
X193700000Y-111100000D01*
X160920000Y-157580000D02*
X160040000Y-158460000D01*
X172920000Y-157580000D02*
X174500000Y-156000000D01*
X160040000Y-158460000D02*
X160040000Y-160000000D01*
X174500000Y-156000000D02*
X174500000Y-115125000D01*
X178730000Y-113650000D02*
X180000000Y-112380000D01*
X193720000Y-80620000D02*
X181250000Y-80620000D01*
X181250000Y-80620000D02*
X180000000Y-81870000D01*
X152460000Y-63810000D02*
X154310000Y-63810000D01*
X178750000Y-80650000D02*
X180000000Y-81900000D01*
X195000000Y-81900000D02*
X193720000Y-80620000D01*
X171150000Y-80650000D02*
X178750000Y-80650000D01*
X154310000Y-63810000D02*
X171150000Y-80650000D01*
X152460000Y-61270000D02*
X154865000Y-61270000D01*
X182000000Y-76750000D02*
X182070000Y-76820000D01*
X170415000Y-76820000D02*
X177460000Y-76820000D01*
X182070000Y-76820000D02*
X192460000Y-76820000D01*
X154865000Y-61270000D02*
X170415000Y-76820000D01*
X181350000Y-106050000D02*
X193650000Y-106050000D01*
X120000000Y-109000000D02*
X100350000Y-128650000D01*
X180000000Y-107400000D02*
X181350000Y-106050000D01*
X176000000Y-109000000D02*
X120000000Y-109000000D01*
X178700000Y-108600000D02*
X176400000Y-108600000D01*
X100350000Y-128650000D02*
X92620000Y-128650000D01*
X180000000Y-107300000D02*
X178700000Y-108600000D01*
X193650000Y-106050000D02*
X195000000Y-107400000D01*
X176400000Y-108600000D02*
X176000000Y-109000000D01*
X192460000Y-109840000D02*
X182340000Y-109840000D01*
X178250480Y-109049520D02*
X177460000Y-109840000D01*
X92620000Y-131190000D02*
X100810000Y-131190000D01*
X100810000Y-131190000D02*
X121000000Y-111000000D01*
X181050000Y-108550000D02*
X179385717Y-108550000D01*
X179385717Y-108550000D02*
X178886197Y-109049520D01*
X178886197Y-109049520D02*
X178250480Y-109049520D01*
X170000000Y-111000000D02*
X171160000Y-109840000D01*
X121000000Y-111000000D02*
X170000000Y-111000000D01*
X171160000Y-109840000D02*
X177460000Y-109840000D01*
X182340000Y-109840000D02*
X181050000Y-108550000D01*
X180000000Y-102200000D02*
X181250000Y-100950000D01*
X193750000Y-100950000D02*
X195000000Y-102200000D01*
X143515000Y-104010000D02*
X146575000Y-100950000D01*
X146575000Y-100950000D02*
X178730000Y-100950000D01*
X181250000Y-100950000D02*
X193750000Y-100950000D01*
X178730000Y-100950000D02*
X180000000Y-102220000D01*
X170780000Y-74280000D02*
X177460000Y-74280000D01*
X155230000Y-58730000D02*
X170780000Y-74280000D01*
X152460000Y-58730000D02*
X155230000Y-58730000D01*
X182000000Y-74000000D02*
X182280000Y-74280000D01*
X182280000Y-74280000D02*
X192460000Y-74280000D01*
X172500000Y-73000000D02*
X178720000Y-73000000D01*
X195000000Y-74280000D02*
X193720000Y-73000000D01*
X152460000Y-56190000D02*
X155690000Y-56190000D01*
X181250000Y-73000000D02*
X180000000Y-74250000D01*
X178720000Y-73000000D02*
X180000000Y-74280000D01*
X193720000Y-73000000D02*
X181250000Y-73000000D01*
X155690000Y-56190000D02*
X172500000Y-73000000D01*
X192460000Y-94600000D02*
X182200000Y-94600000D01*
X182200000Y-94600000D02*
X182000000Y-94400000D01*
X135895000Y-104010000D02*
X145305000Y-94600000D01*
X145305000Y-94600000D02*
X177460000Y-94600000D01*
X145305000Y-99680000D02*
X177460000Y-99680000D01*
X192460000Y-99680000D02*
X182180000Y-99680000D01*
X182180000Y-99680000D02*
X182000000Y-99500000D01*
X140975000Y-104010000D02*
X145305000Y-99680000D01*
X192460000Y-70460000D02*
X192000000Y-70000000D01*
X192460000Y-71740000D02*
X192460000Y-70460000D01*
X174240000Y-71740000D02*
X156150000Y-53650000D01*
X178000000Y-70000000D02*
X177460000Y-70540000D01*
X192000000Y-70000000D02*
X178000000Y-70000000D01*
X177460000Y-70540000D02*
X177460000Y-71740000D01*
X177460000Y-71740000D02*
X174240000Y-71740000D01*
X156150000Y-53650000D02*
X152460000Y-53650000D01*
X192460000Y-102220000D02*
X182220000Y-102220000D01*
X146055000Y-104010000D02*
X147845000Y-102220000D01*
X147845000Y-102220000D02*
X177460000Y-102220000D01*
X182220000Y-102220000D02*
X182000000Y-102000000D01*
X180000000Y-92000000D02*
X180000000Y-92060000D01*
X125500000Y-101000000D02*
X135700000Y-90800000D01*
X100390000Y-101000000D02*
X125500000Y-101000000D01*
X195040000Y-92040000D02*
X193800000Y-90800000D01*
X178800000Y-90800000D02*
X180000000Y-92000000D01*
X193800000Y-90800000D02*
X181250000Y-90800000D01*
X135700000Y-90800000D02*
X178800000Y-90800000D01*
X92620000Y-108770000D02*
X100390000Y-101000000D01*
X181250000Y-90800000D02*
X180040000Y-92010000D01*
X92620000Y-111310000D02*
X100930000Y-103000000D01*
X126000000Y-103000000D02*
X136940000Y-92060000D01*
X182260000Y-92060000D02*
X182000000Y-91800000D01*
X192460000Y-92060000D02*
X182260000Y-92060000D01*
X100930000Y-103000000D02*
X126000000Y-103000000D01*
X136940000Y-92060000D02*
X177460000Y-92060000D01*
X181250000Y-85720000D02*
X180000000Y-86970000D01*
X195000000Y-87000000D02*
X193720000Y-85720000D01*
X193720000Y-85720000D02*
X181250000Y-85720000D01*
X182000000Y-86750000D02*
X182230000Y-86980000D01*
X182230000Y-86980000D02*
X192460000Y-86980000D01*
X193750000Y-93350000D02*
X181220000Y-93350000D01*
X178700000Y-93300000D02*
X180000000Y-94600000D01*
X181220000Y-93350000D02*
X180000000Y-94570000D01*
X133355000Y-104010000D02*
X144065000Y-93300000D01*
X195000000Y-94600000D02*
X193750000Y-93350000D01*
X144065000Y-93300000D02*
X178700000Y-93300000D01*
X195000000Y-97100000D02*
X193760000Y-95860000D01*
X178710000Y-95850000D02*
X180000000Y-97140000D01*
X193760000Y-95860000D02*
X181210000Y-95860000D01*
X146595000Y-95850000D02*
X178710000Y-95850000D01*
X138435000Y-104010000D02*
X146595000Y-95850000D01*
X181210000Y-95860000D02*
X180000000Y-97070000D01*
X89500000Y-140500000D02*
X90350000Y-141350000D01*
X90350000Y-141350000D02*
X92620000Y-141350000D01*
X118700000Y-107300000D02*
X177460000Y-107300000D01*
X89500000Y-127000000D02*
X89500000Y-132000000D01*
X89500000Y-135500000D02*
X89500000Y-140500000D01*
X192460000Y-107300000D02*
X182100000Y-107300000D01*
X99890000Y-126110000D02*
X100000000Y-126000000D01*
X182100000Y-107300000D02*
X181800000Y-107000000D01*
X90390000Y-126110000D02*
X89500000Y-127000000D01*
X92620000Y-126110000D02*
X90390000Y-126110000D01*
X92620000Y-126110000D02*
X99890000Y-126110000D01*
X100000000Y-126000000D02*
X118700000Y-107300000D01*
X90640000Y-98610000D02*
X92620000Y-98610000D01*
X92620000Y-98610000D02*
X96730000Y-94500000D01*
X89500000Y-113000000D02*
X89500000Y-108000000D01*
X90350000Y-113850000D02*
X89500000Y-113000000D01*
X134000000Y-82500000D02*
X163250000Y-82500000D01*
X89500000Y-99750000D02*
X90640000Y-98610000D01*
X92620000Y-113850000D02*
X90350000Y-113850000D01*
X169744622Y-78255378D02*
X169900000Y-78100000D01*
X163250000Y-82500000D02*
X167500000Y-78250000D01*
X96730000Y-94500000D02*
X122000000Y-94500000D01*
X89500000Y-104500000D02*
X89500000Y-99750000D01*
X178740000Y-78100000D02*
X180000000Y-79360000D01*
X195000000Y-79300000D02*
X193720000Y-78020000D01*
X193720000Y-78020000D02*
X181250000Y-78020000D01*
X181250000Y-78020000D02*
X180000000Y-79270000D01*
X169900000Y-78100000D02*
X178740000Y-78100000D01*
X122000000Y-94500000D02*
X134000000Y-82500000D01*
X193720000Y-75520000D02*
X181250000Y-75520000D01*
X181250000Y-75520000D02*
X180000000Y-76770000D01*
X195000000Y-76800000D02*
X193720000Y-75520000D01*
X160040000Y-141960000D02*
X160040000Y-145000000D01*
X171000000Y-141000000D02*
X161000000Y-141000000D01*
X172500000Y-139500000D02*
X171000000Y-141000000D01*
X172500000Y-115000000D02*
X172500000Y-139500000D01*
X192460000Y-112380000D02*
X182130000Y-112380000D01*
X161000000Y-141000000D02*
X160040000Y-141960000D01*
X182130000Y-112380000D02*
X181750000Y-112000000D01*
X175120000Y-112380000D02*
X172500000Y-115000000D01*
X177460000Y-112380000D02*
X175120000Y-112380000D01*
X195000000Y-84400000D02*
X193720000Y-83120000D01*
X166350000Y-83150000D02*
X178710000Y-83150000D01*
X193720000Y-83120000D02*
X181250000Y-83120000D01*
X181250000Y-83120000D02*
X180000000Y-84370000D01*
X165000000Y-84500000D02*
X166350000Y-83150000D01*
X178710000Y-83150000D02*
X180000000Y-84440000D01*
X123000000Y-96500000D02*
X135000000Y-84500000D01*
X97270000Y-96500000D02*
X123000000Y-96500000D01*
X135000000Y-84500000D02*
X165000000Y-84500000D01*
X92620000Y-101150000D02*
X97270000Y-96500000D01*
X124500000Y-98500000D02*
X136500000Y-86500000D01*
X92620000Y-103690000D02*
X97810000Y-98500000D01*
X97810000Y-98500000D02*
X124500000Y-98500000D01*
X136500000Y-86500000D02*
X174440000Y-86500000D01*
X192460000Y-89520000D02*
X181970000Y-89520000D01*
X180650000Y-88200000D02*
X178780000Y-88200000D01*
X174440000Y-86500000D02*
X177460000Y-89520000D01*
X181970000Y-89520000D02*
X180650000Y-88200000D01*
X178780000Y-88200000D02*
X177460000Y-89520000D01*
X137220000Y-43490000D02*
X139810000Y-43490000D01*
X139810000Y-43490000D02*
X139820000Y-43500000D01*
X139810000Y-46030000D02*
X139820000Y-46040000D01*
X137220000Y-46030000D02*
X139810000Y-46030000D01*
X137230000Y-48580000D02*
X137220000Y-48570000D01*
X139820000Y-48580000D02*
X137230000Y-48580000D01*
X137220000Y-51110000D02*
X139810000Y-51110000D01*
X139810000Y-51110000D02*
X139820000Y-51120000D01*
X156920000Y-129080000D02*
X156920000Y-132500000D01*
X158250000Y-128400000D02*
X157600000Y-128400000D01*
X157600000Y-128400000D02*
X156920000Y-129080000D01*
X179950000Y-117550000D02*
X181300000Y-116200000D01*
X181300000Y-116200000D02*
X193600000Y-116200000D01*
X193600000Y-116200000D02*
X194950000Y-117550000D01*
X193650000Y-113650000D02*
X195000000Y-115000000D01*
X181350000Y-113650000D02*
X193650000Y-113650000D01*
X180000000Y-115000000D02*
X181350000Y-113650000D01*
X139810000Y-40950000D02*
X139820000Y-40960000D01*
X137220000Y-40950000D02*
X139810000Y-40950000D01*
X137220000Y-79050000D02*
X139810000Y-79050000D01*
X139810000Y-79050000D02*
X139820000Y-79060000D01*
X182000000Y-81750000D02*
X182150000Y-81900000D01*
X182150000Y-81900000D02*
X192460000Y-81900000D01*
X181800000Y-119649989D02*
X182150011Y-120000000D01*
D29*
X177460000Y-120000000D02*
X177460000Y-133000000D01*
X177460000Y-117460000D02*
X177460000Y-120000000D01*
D28*
X192460000Y-117460000D02*
X181960000Y-117460000D01*
D29*
X177460000Y-136460000D02*
X180000000Y-139000000D01*
X177460000Y-133000000D02*
X177460000Y-136460000D01*
X180000000Y-139000000D02*
X181920000Y-139000000D01*
D28*
X182150011Y-120000000D02*
X192460000Y-120000000D01*
X181960000Y-117460000D02*
X181750000Y-117250000D01*
X193500000Y-118700000D02*
X194950000Y-120150000D01*
X180300000Y-118700000D02*
X193500000Y-118700000D01*
D29*
X185080000Y-144000000D02*
X181920000Y-144000000D01*
D28*
X196500000Y-118500000D02*
X195000000Y-120000000D01*
D29*
X195000000Y-121500000D02*
X190500000Y-126000000D01*
D28*
X181280000Y-98400000D02*
X193720000Y-98400000D01*
D29*
X190500000Y-134000000D02*
X186500000Y-138000000D01*
D28*
X180000000Y-99680000D02*
X181280000Y-98400000D01*
D29*
X186500000Y-142580000D02*
X185080000Y-144000000D01*
D28*
X179950000Y-119050000D02*
X180300000Y-118700000D01*
D29*
X186500000Y-138000000D02*
X186500000Y-142580000D01*
D28*
X193720000Y-98400000D02*
X195000000Y-99680000D01*
D29*
X190500000Y-126000000D02*
X190500000Y-134000000D01*
D28*
X179950000Y-120150000D02*
X179950000Y-119050000D01*
D29*
X195000000Y-120000000D02*
X195000000Y-121500000D01*
D28*
X196500000Y-101180000D02*
X196500000Y-118500000D01*
X195000000Y-99680000D02*
X196500000Y-101180000D01*
M02*
