%FSLAX45Y45*%
G04 Gerber Fmt 4.5, Leading zero omitted, Abs format (unit mm)*
G04 Created by KiCad (PCBNEW (6.0.2)) date 2023-01-22 12:35:05*
%MOMM*%
%LPD*%
G01*
G04 APERTURE LIST*
%TA.AperFunction,Profile*%
%ADD10C,0.050000*%
%TD*%
%ADD11C,0.200000*%
%ADD12C,0.040000*%
%ADD13C,0.050000*%
%ADD14C,0.080000*%
%ADD15C,0.100000*%
%ADD16C,0.320000*%
G04 APERTURE END LIST*
D10*
X20000000Y-4000000D02*
G75*
G03*
X19500000Y-3500000I-500000J0D01*
G01*
X19500000Y-16500000D02*
X6500000Y-16500000D01*
X6000000Y-16000000D02*
G75*
G03*
X6500000Y-16500000I500000J0D01*
G01*
X20000000Y-4000000D02*
X20000000Y-16000000D01*
X6000000Y-16000000D02*
X6000000Y-4000000D01*
X6500000Y-3500000D02*
G75*
G03*
X6000000Y-4000000I0J-500000D01*
G01*
X6500000Y-3500000D02*
X19500000Y-3500000D01*
X19500000Y-16500000D02*
G75*
G03*
X20000000Y-16000000I0J500000D01*
G01*
D11*
D12*
X8930000Y-10430000D02*
X8970000Y-10470000D01*
X8970000Y-10430000D02*
X8930000Y-10470000D01*
X8930000Y-10780000D02*
X8970000Y-10820000D01*
X8970000Y-10780000D02*
X8930000Y-10820000D01*
X8930000Y-13430000D02*
X8970000Y-13470000D01*
X8970000Y-13430000D02*
X8930000Y-13470000D01*
X8930000Y-13780000D02*
X8970000Y-13820000D01*
X8970000Y-13780000D02*
X8930000Y-13820000D01*
X13080000Y-13280000D02*
X13120000Y-13320000D01*
X13120000Y-13280000D02*
X13080000Y-13320000D01*
X13080000Y-13580000D02*
X13120000Y-13620000D01*
X13120000Y-13580000D02*
X13080000Y-13620000D01*
X13330000Y-13280000D02*
X13370000Y-13320000D01*
X13370000Y-13280000D02*
X13330000Y-13320000D01*
X13330000Y-13580000D02*
X13370000Y-13620000D01*
X13370000Y-13580000D02*
X13330000Y-13620000D01*
X13580000Y-13280000D02*
X13620000Y-13320000D01*
X13620000Y-13280000D02*
X13580000Y-13320000D01*
X13580000Y-13580000D02*
X13620000Y-13620000D01*
X13620000Y-13580000D02*
X13580000Y-13620000D01*
X13830000Y-13280000D02*
X13870000Y-13320000D01*
X13870000Y-13280000D02*
X13830000Y-13320000D01*
X13830000Y-13580000D02*
X13870000Y-13620000D01*
X13870000Y-13580000D02*
X13830000Y-13620000D01*
X14080000Y-13280000D02*
X14120000Y-13320000D01*
X14120000Y-13280000D02*
X14080000Y-13320000D01*
X14080000Y-13580000D02*
X14120000Y-13620000D01*
X14120000Y-13580000D02*
X14080000Y-13620000D01*
X14330000Y-13280000D02*
X14370000Y-13320000D01*
X14370000Y-13280000D02*
X14330000Y-13320000D01*
X14330000Y-13580000D02*
X14370000Y-13620000D01*
X14370000Y-13580000D02*
X14330000Y-13620000D01*
X15769000Y-12819000D02*
X15809000Y-12859000D01*
X15809000Y-12819000D02*
X15769000Y-12859000D01*
X16480000Y-12880000D02*
X16520000Y-12920000D01*
X16520000Y-12880000D02*
X16480000Y-12920000D01*
X16680000Y-11180000D02*
X16720000Y-11220000D01*
X16720000Y-11180000D02*
X16680000Y-11220000D01*
X16730000Y-7805000D02*
X16770000Y-7845000D01*
X16770000Y-7805000D02*
X16730000Y-7845000D01*
X16780000Y-10580000D02*
X16820000Y-10620000D01*
X16820000Y-10580000D02*
X16780000Y-10620000D01*
X16954462Y-7805538D02*
X16994462Y-7845538D01*
X16994462Y-7805538D02*
X16954462Y-7845538D01*
X18155000Y-11180000D02*
X18195000Y-11220000D01*
X18195000Y-11180000D02*
X18155000Y-11220000D01*
X18160000Y-10680000D02*
X18200000Y-10720000D01*
X18200000Y-10680000D02*
X18160000Y-10720000D01*
X18180000Y-7380000D02*
X18220000Y-7420000D01*
X18220000Y-7380000D02*
X18180000Y-7420000D01*
X18180000Y-7655000D02*
X18220000Y-7695000D01*
X18220000Y-7655000D02*
X18180000Y-7695000D01*
X18180000Y-8155000D02*
X18220000Y-8195000D01*
X18220000Y-8155000D02*
X18180000Y-8195000D01*
X18180000Y-8655000D02*
X18220000Y-8695000D01*
X18220000Y-8655000D02*
X18180000Y-8695000D01*
X18180000Y-9160000D02*
X18220000Y-9200000D01*
X18220000Y-9160000D02*
X18180000Y-9200000D01*
X18180000Y-9420000D02*
X18220000Y-9460000D01*
X18220000Y-9420000D02*
X18180000Y-9460000D01*
X18180000Y-9930000D02*
X18220000Y-9970000D01*
X18220000Y-9930000D02*
X18180000Y-9970000D01*
X18180000Y-10180000D02*
X18220000Y-10220000D01*
X18220000Y-10180000D02*
X18180000Y-10220000D01*
D13*
X7225000Y-6700000D02*
G75*
G03*
X7225000Y-6700000I-25000J0D01*
G01*
X7225000Y-9150000D02*
G75*
G03*
X7225000Y-9150000I-25000J0D01*
G01*
X7225000Y-15500000D02*
G75*
G03*
X7225000Y-15500000I-25000J0D01*
G01*
X8125000Y-3700000D02*
G75*
G03*
X8125000Y-3700000I-25000J0D01*
G01*
X8125000Y-9150000D02*
G75*
G03*
X8125000Y-9150000I-25000J0D01*
G01*
X15625000Y-5100000D02*
G75*
G03*
X15625000Y-5100000I-25000J0D01*
G01*
X17875000Y-14250000D02*
G75*
G03*
X17875000Y-14250000I-25000J0D01*
G01*
X17875000Y-14750000D02*
G75*
G03*
X17875000Y-14750000I-25000J0D01*
G01*
X17925000Y-13250000D02*
G75*
G03*
X17925000Y-13250000I-25000J0D01*
G01*
X18675000Y-12300000D02*
G75*
G03*
X18675000Y-12300000I-25000J0D01*
G01*
X18925000Y-12050000D02*
G75*
G03*
X18925000Y-12050000I-25000J0D01*
G01*
X19025000Y-14750000D02*
G75*
G03*
X19025000Y-14750000I-25000J0D01*
G01*
X19325000Y-13500000D02*
G75*
G03*
X19325000Y-13500000I-25000J0D01*
G01*
D14*
X9000000Y-9110000D02*
X9000000Y-9190000D01*
X8960000Y-9150000D02*
X9040000Y-9150000D01*
X10016000Y-9110000D02*
X10016000Y-9190000D01*
X9976000Y-9150000D02*
X10056000Y-9150000D01*
X11238000Y-4024000D02*
X11238000Y-4104000D01*
X11198000Y-4064000D02*
X11278000Y-4064000D01*
X11238000Y-4278000D02*
X11238000Y-4358000D01*
X11198000Y-4318000D02*
X11278000Y-4318000D01*
X11238000Y-4532000D02*
X11238000Y-4612000D01*
X11198000Y-4572000D02*
X11278000Y-4572000D01*
X11238000Y-4786000D02*
X11238000Y-4866000D01*
X11198000Y-4826000D02*
X11278000Y-4826000D01*
X11238000Y-5040000D02*
X11238000Y-5120000D01*
X11198000Y-5080000D02*
X11278000Y-5080000D01*
X11238000Y-5294000D02*
X11238000Y-5374000D01*
X11198000Y-5334000D02*
X11278000Y-5334000D01*
X11238000Y-5548000D02*
X11238000Y-5628000D01*
X11198000Y-5588000D02*
X11278000Y-5588000D01*
X11238000Y-5802000D02*
X11238000Y-5882000D01*
X11198000Y-5842000D02*
X11278000Y-5842000D01*
X11238000Y-6056000D02*
X11238000Y-6136000D01*
X11198000Y-6096000D02*
X11278000Y-6096000D01*
X11238000Y-6928000D02*
X11238000Y-7008000D01*
X11198000Y-6968000D02*
X11278000Y-6968000D01*
X11238000Y-7182000D02*
X11238000Y-7262000D01*
X11198000Y-7222000D02*
X11278000Y-7222000D01*
X11238000Y-7436000D02*
X11238000Y-7516000D01*
X11198000Y-7476000D02*
X11278000Y-7476000D01*
X11238000Y-7690000D02*
X11238000Y-7770000D01*
X11198000Y-7730000D02*
X11278000Y-7730000D01*
X11238000Y-7944000D02*
X11238000Y-8024000D01*
X11198000Y-7984000D02*
X11278000Y-7984000D01*
X11238000Y-8198000D02*
X11238000Y-8278000D01*
X11198000Y-8238000D02*
X11278000Y-8238000D01*
X11238000Y-8452000D02*
X11238000Y-8532000D01*
X11198000Y-8492000D02*
X11278000Y-8492000D01*
X11238000Y-8706000D02*
X11238000Y-8786000D01*
X11198000Y-8746000D02*
X11278000Y-8746000D01*
X11238000Y-8960000D02*
X11238000Y-9040000D01*
X11198000Y-9000000D02*
X11278000Y-9000000D01*
X12000000Y-4024000D02*
X12000000Y-4104000D01*
X11960000Y-4064000D02*
X12040000Y-4064000D01*
X12000000Y-4278000D02*
X12000000Y-4358000D01*
X11960000Y-4318000D02*
X12040000Y-4318000D01*
X12000000Y-4532000D02*
X12000000Y-4612000D01*
X11960000Y-4572000D02*
X12040000Y-4572000D01*
X12000000Y-4786000D02*
X12000000Y-4866000D01*
X11960000Y-4826000D02*
X12040000Y-4826000D01*
X12000000Y-5040000D02*
X12000000Y-5120000D01*
X11960000Y-5080000D02*
X12040000Y-5080000D01*
X12000000Y-5294000D02*
X12000000Y-5374000D01*
X11960000Y-5334000D02*
X12040000Y-5334000D01*
X12000000Y-5548000D02*
X12000000Y-5628000D01*
X11960000Y-5588000D02*
X12040000Y-5588000D01*
X12000000Y-5802000D02*
X12000000Y-5882000D01*
X11960000Y-5842000D02*
X12040000Y-5842000D01*
X12000000Y-6056000D02*
X12000000Y-6136000D01*
X11960000Y-6096000D02*
X12040000Y-6096000D01*
X12000000Y-6928000D02*
X12000000Y-7008000D01*
X11960000Y-6968000D02*
X12040000Y-6968000D01*
X12000000Y-7182000D02*
X12000000Y-7262000D01*
X11960000Y-7222000D02*
X12040000Y-7222000D01*
X12000000Y-7436000D02*
X12000000Y-7516000D01*
X11960000Y-7476000D02*
X12040000Y-7476000D01*
X12000000Y-7690000D02*
X12000000Y-7770000D01*
X11960000Y-7730000D02*
X12040000Y-7730000D01*
X12000000Y-7944000D02*
X12000000Y-8024000D01*
X11960000Y-7984000D02*
X12040000Y-7984000D01*
X12000000Y-8198000D02*
X12000000Y-8278000D01*
X11960000Y-8238000D02*
X12040000Y-8238000D01*
X12000000Y-8452000D02*
X12000000Y-8532000D01*
X11960000Y-8492000D02*
X12040000Y-8492000D01*
X12000000Y-8706000D02*
X12000000Y-8786000D01*
X11960000Y-8746000D02*
X12040000Y-8746000D01*
X12000000Y-8960000D02*
X12000000Y-9040000D01*
X11960000Y-9000000D02*
X12040000Y-9000000D01*
X12370000Y-4024000D02*
X12370000Y-4104000D01*
X12330000Y-4064000D02*
X12410000Y-4064000D01*
X12370000Y-4532000D02*
X12370000Y-4612000D01*
X12330000Y-4572000D02*
X12410000Y-4572000D01*
X12370000Y-6928000D02*
X12370000Y-7008000D01*
X12330000Y-6968000D02*
X12410000Y-6968000D01*
X12370000Y-7436000D02*
X12370000Y-7516000D01*
X12330000Y-7476000D02*
X12410000Y-7476000D01*
X12462500Y-12233000D02*
X12462500Y-12313000D01*
X12422500Y-12273000D02*
X12502500Y-12273000D01*
X12462500Y-12741000D02*
X12462500Y-12821000D01*
X12422500Y-12781000D02*
X12502500Y-12781000D01*
X12827500Y-11979000D02*
X12827500Y-12059000D01*
X12787500Y-12019000D02*
X12867500Y-12019000D01*
X12827500Y-12741000D02*
X12827500Y-12821000D01*
X12787500Y-12781000D02*
X12867500Y-12781000D01*
X13081500Y-11979000D02*
X13081500Y-12059000D01*
X13041500Y-12019000D02*
X13121500Y-12019000D01*
X13081500Y-12741000D02*
X13081500Y-12821000D01*
X13041500Y-12781000D02*
X13121500Y-12781000D01*
X13335500Y-10361000D02*
X13335500Y-10441000D01*
X13295500Y-10401000D02*
X13375500Y-10401000D01*
X13335500Y-11377000D02*
X13335500Y-11457000D01*
X13295500Y-11417000D02*
X13375500Y-11417000D01*
X13335500Y-11979000D02*
X13335500Y-12059000D01*
X13295500Y-12019000D02*
X13375500Y-12019000D01*
X13335500Y-12741000D02*
X13335500Y-12821000D01*
X13295500Y-12781000D02*
X13375500Y-12781000D01*
X13589500Y-10361000D02*
X13589500Y-10441000D01*
X13549500Y-10401000D02*
X13629500Y-10401000D01*
X13589500Y-11377000D02*
X13589500Y-11457000D01*
X13549500Y-11417000D02*
X13629500Y-11417000D01*
X13589500Y-11979000D02*
X13589500Y-12059000D01*
X13549500Y-12019000D02*
X13629500Y-12019000D01*
X13589500Y-12741000D02*
X13589500Y-12821000D01*
X13549500Y-12781000D02*
X13629500Y-12781000D01*
X13843500Y-10361000D02*
X13843500Y-10441000D01*
X13803500Y-10401000D02*
X13883500Y-10401000D01*
X13843500Y-11377000D02*
X13843500Y-11457000D01*
X13803500Y-11417000D02*
X13883500Y-11417000D01*
X13843500Y-11979000D02*
X13843500Y-12059000D01*
X13803500Y-12019000D02*
X13883500Y-12019000D01*
X13843500Y-12741000D02*
X13843500Y-12821000D01*
X13803500Y-12781000D02*
X13883500Y-12781000D01*
X13982000Y-4056000D02*
X13982000Y-4136000D01*
X13942000Y-4096000D02*
X14022000Y-4096000D01*
X13982000Y-4310000D02*
X13982000Y-4390000D01*
X13942000Y-4350000D02*
X14022000Y-4350000D01*
X13982000Y-4564000D02*
X13982000Y-4644000D01*
X13942000Y-4604000D02*
X14022000Y-4604000D01*
X13982000Y-4818000D02*
X13982000Y-4898000D01*
X13942000Y-4858000D02*
X14022000Y-4858000D01*
X13982000Y-5072000D02*
X13982000Y-5152000D01*
X13942000Y-5112000D02*
X14022000Y-5112000D01*
X13982000Y-5326000D02*
X13982000Y-5406000D01*
X13942000Y-5366000D02*
X14022000Y-5366000D01*
X13982000Y-5580000D02*
X13982000Y-5660000D01*
X13942000Y-5620000D02*
X14022000Y-5620000D01*
X13982000Y-5834000D02*
X13982000Y-5914000D01*
X13942000Y-5874000D02*
X14022000Y-5874000D01*
X13982000Y-6088000D02*
X13982000Y-6168000D01*
X13942000Y-6128000D02*
X14022000Y-6128000D01*
X13982000Y-6342000D02*
X13982000Y-6422000D01*
X13942000Y-6382000D02*
X14022000Y-6382000D01*
X13982000Y-6596000D02*
X13982000Y-6676000D01*
X13942000Y-6636000D02*
X14022000Y-6636000D01*
X13982000Y-6850000D02*
X13982000Y-6930000D01*
X13942000Y-6890000D02*
X14022000Y-6890000D01*
X13982000Y-7104000D02*
X13982000Y-7184000D01*
X13942000Y-7144000D02*
X14022000Y-7144000D01*
X13982000Y-7358000D02*
X13982000Y-7438000D01*
X13942000Y-7398000D02*
X14022000Y-7398000D01*
X13982000Y-7612000D02*
X13982000Y-7692000D01*
X13942000Y-7652000D02*
X14022000Y-7652000D01*
X13982000Y-7866000D02*
X13982000Y-7946000D01*
X13942000Y-7906000D02*
X14022000Y-7906000D01*
X14097500Y-10361000D02*
X14097500Y-10441000D01*
X14057500Y-10401000D02*
X14137500Y-10401000D01*
X14097500Y-11377000D02*
X14097500Y-11457000D01*
X14057500Y-11417000D02*
X14137500Y-11417000D01*
X14097500Y-11979000D02*
X14097500Y-12059000D01*
X14057500Y-12019000D02*
X14137500Y-12019000D01*
X14097500Y-12741000D02*
X14097500Y-12821000D01*
X14057500Y-12781000D02*
X14137500Y-12781000D01*
X14351500Y-10361000D02*
X14351500Y-10441000D01*
X14311500Y-10401000D02*
X14391500Y-10401000D01*
X14351500Y-11377000D02*
X14351500Y-11457000D01*
X14311500Y-11417000D02*
X14391500Y-11417000D01*
X14351500Y-11979000D02*
X14351500Y-12059000D01*
X14311500Y-12019000D02*
X14391500Y-12019000D01*
X14351500Y-12741000D02*
X14351500Y-12821000D01*
X14311500Y-12781000D02*
X14391500Y-12781000D01*
X14605500Y-10361000D02*
X14605500Y-10441000D01*
X14565500Y-10401000D02*
X14645500Y-10401000D01*
X14605500Y-11377000D02*
X14605500Y-11457000D01*
X14565500Y-11417000D02*
X14645500Y-11417000D01*
X14605500Y-11979000D02*
X14605500Y-12059000D01*
X14565500Y-12019000D02*
X14645500Y-12019000D01*
X14605500Y-12741000D02*
X14605500Y-12821000D01*
X14565500Y-12781000D02*
X14645500Y-12781000D01*
X14859500Y-11979000D02*
X14859500Y-12059000D01*
X14819500Y-12019000D02*
X14899500Y-12019000D01*
X14859500Y-12741000D02*
X14859500Y-12821000D01*
X14819500Y-12781000D02*
X14899500Y-12781000D01*
X14998000Y-4056000D02*
X14998000Y-4136000D01*
X14958000Y-4096000D02*
X15038000Y-4096000D01*
X14998000Y-4310000D02*
X14998000Y-4390000D01*
X14958000Y-4350000D02*
X15038000Y-4350000D01*
X14998000Y-4564000D02*
X14998000Y-4644000D01*
X14958000Y-4604000D02*
X15038000Y-4604000D01*
X14998000Y-4818000D02*
X14998000Y-4898000D01*
X14958000Y-4858000D02*
X15038000Y-4858000D01*
X14998000Y-5072000D02*
X14998000Y-5152000D01*
X14958000Y-5112000D02*
X15038000Y-5112000D01*
X14998000Y-5326000D02*
X14998000Y-5406000D01*
X14958000Y-5366000D02*
X15038000Y-5366000D01*
X14998000Y-5580000D02*
X14998000Y-5660000D01*
X14958000Y-5620000D02*
X15038000Y-5620000D01*
X14998000Y-5834000D02*
X14998000Y-5914000D01*
X14958000Y-5874000D02*
X15038000Y-5874000D01*
X14998000Y-6088000D02*
X14998000Y-6168000D01*
X14958000Y-6128000D02*
X15038000Y-6128000D01*
X14998000Y-6342000D02*
X14998000Y-6422000D01*
X14958000Y-6382000D02*
X15038000Y-6382000D01*
X14998000Y-6596000D02*
X14998000Y-6676000D01*
X14958000Y-6636000D02*
X15038000Y-6636000D01*
X14998000Y-6850000D02*
X14998000Y-6930000D01*
X14958000Y-6890000D02*
X15038000Y-6890000D01*
X14998000Y-7104000D02*
X14998000Y-7184000D01*
X14958000Y-7144000D02*
X15038000Y-7144000D01*
X14998000Y-7358000D02*
X14998000Y-7438000D01*
X14958000Y-7398000D02*
X15038000Y-7398000D01*
X14998000Y-7612000D02*
X14998000Y-7692000D01*
X14958000Y-7652000D02*
X15038000Y-7652000D01*
X14998000Y-7866000D02*
X14998000Y-7946000D01*
X14958000Y-7906000D02*
X15038000Y-7906000D01*
X15113500Y-11979000D02*
X15113500Y-12059000D01*
X15073500Y-12019000D02*
X15153500Y-12019000D01*
X15113500Y-12741000D02*
X15113500Y-12821000D01*
X15073500Y-12781000D02*
X15153500Y-12781000D01*
X15662000Y-13227000D02*
X15662000Y-13307000D01*
X15622000Y-13267000D02*
X15702000Y-13267000D01*
X16678000Y-13227000D02*
X16678000Y-13307000D01*
X16638000Y-13267000D02*
X16718000Y-13267000D01*
X17000000Y-14702000D02*
X17000000Y-14782000D01*
X16960000Y-14742000D02*
X17040000Y-14742000D01*
X17000000Y-15718000D02*
X17000000Y-15798000D01*
X16960000Y-15758000D02*
X17040000Y-15758000D01*
X18742000Y-13210000D02*
X18742000Y-13290000D01*
X18702000Y-13250000D02*
X18782000Y-13250000D01*
X19758000Y-13210000D02*
X19758000Y-13290000D01*
X19718000Y-13250000D02*
X19798000Y-13250000D01*
D15*
X6535356Y-5269356D02*
X6535356Y-5198644D01*
X6464644Y-5198644D01*
X6464644Y-5269356D01*
X6535356Y-5269356D01*
X6535356Y-5523356D02*
X6535356Y-5452644D01*
X6464644Y-5452644D01*
X6464644Y-5523356D01*
X6535356Y-5523356D01*
X6535356Y-5777356D02*
X6535356Y-5706644D01*
X6464644Y-5706644D01*
X6464644Y-5777356D01*
X6535356Y-5777356D01*
X6535356Y-6031356D02*
X6535356Y-5960644D01*
X6464644Y-5960644D01*
X6464644Y-6031356D01*
X6535356Y-6031356D01*
X6535356Y-6285356D02*
X6535356Y-6214644D01*
X6464644Y-6214644D01*
X6464644Y-6285356D01*
X6535356Y-6285356D01*
X6535356Y-7519356D02*
X6535356Y-7448644D01*
X6464644Y-7448644D01*
X6464644Y-7519356D01*
X6535356Y-7519356D01*
X6535356Y-7773356D02*
X6535356Y-7702644D01*
X6464644Y-7702644D01*
X6464644Y-7773356D01*
X6535356Y-7773356D01*
X6535356Y-8027356D02*
X6535356Y-7956644D01*
X6464644Y-7956644D01*
X6464644Y-8027356D01*
X6535356Y-8027356D01*
X6535356Y-8281356D02*
X6535356Y-8210644D01*
X6464644Y-8210644D01*
X6464644Y-8281356D01*
X6535356Y-8281356D01*
X6535356Y-8535356D02*
X6535356Y-8464644D01*
X6464644Y-8464644D01*
X6464644Y-8535356D01*
X6535356Y-8535356D01*
X7773356Y-9896356D02*
X7773356Y-9825644D01*
X7702644Y-9825644D01*
X7702644Y-9896356D01*
X7773356Y-9896356D01*
X7773356Y-10150356D02*
X7773356Y-10079644D01*
X7702644Y-10079644D01*
X7702644Y-10150356D01*
X7773356Y-10150356D01*
X7773356Y-10404356D02*
X7773356Y-10333644D01*
X7702644Y-10333644D01*
X7702644Y-10404356D01*
X7773356Y-10404356D01*
X7773356Y-10658356D02*
X7773356Y-10587644D01*
X7702644Y-10587644D01*
X7702644Y-10658356D01*
X7773356Y-10658356D01*
X7773356Y-10912356D02*
X7773356Y-10841644D01*
X7702644Y-10841644D01*
X7702644Y-10912356D01*
X7773356Y-10912356D01*
X7773356Y-11166356D02*
X7773356Y-11095644D01*
X7702644Y-11095644D01*
X7702644Y-11166356D01*
X7773356Y-11166356D01*
X7773356Y-11420356D02*
X7773356Y-11349644D01*
X7702644Y-11349644D01*
X7702644Y-11420356D01*
X7773356Y-11420356D01*
X7773356Y-11674356D02*
X7773356Y-11603644D01*
X7702644Y-11603644D01*
X7702644Y-11674356D01*
X7773356Y-11674356D01*
X7773356Y-12896356D02*
X7773356Y-12825644D01*
X7702644Y-12825644D01*
X7702644Y-12896356D01*
X7773356Y-12896356D01*
X7773356Y-13150356D02*
X7773356Y-13079644D01*
X7702644Y-13079644D01*
X7702644Y-13150356D01*
X7773356Y-13150356D01*
X7773356Y-13404356D02*
X7773356Y-13333644D01*
X7702644Y-13333644D01*
X7702644Y-13404356D01*
X7773356Y-13404356D01*
X7773356Y-13658356D02*
X7773356Y-13587644D01*
X7702644Y-13587644D01*
X7702644Y-13658356D01*
X7773356Y-13658356D01*
X7773356Y-13912356D02*
X7773356Y-13841644D01*
X7702644Y-13841644D01*
X7702644Y-13912356D01*
X7773356Y-13912356D01*
X7773356Y-14166356D02*
X7773356Y-14095644D01*
X7702644Y-14095644D01*
X7702644Y-14166356D01*
X7773356Y-14166356D01*
X7773356Y-14420356D02*
X7773356Y-14349644D01*
X7702644Y-14349644D01*
X7702644Y-14420356D01*
X7773356Y-14420356D01*
X7773356Y-14674356D02*
X7773356Y-14603644D01*
X7702644Y-14603644D01*
X7702644Y-14674356D01*
X7773356Y-14674356D01*
X9297356Y-9896356D02*
X9297356Y-9825644D01*
X9226644Y-9825644D01*
X9226644Y-9896356D01*
X9297356Y-9896356D01*
X9297356Y-10150356D02*
X9297356Y-10079644D01*
X9226644Y-10079644D01*
X9226644Y-10150356D01*
X9297356Y-10150356D01*
X9297356Y-10404356D02*
X9297356Y-10333644D01*
X9226644Y-10333644D01*
X9226644Y-10404356D01*
X9297356Y-10404356D01*
X9297356Y-10658356D02*
X9297356Y-10587644D01*
X9226644Y-10587644D01*
X9226644Y-10658356D01*
X9297356Y-10658356D01*
X9297356Y-10912356D02*
X9297356Y-10841644D01*
X9226644Y-10841644D01*
X9226644Y-10912356D01*
X9297356Y-10912356D01*
X9297356Y-11166356D02*
X9297356Y-11095644D01*
X9226644Y-11095644D01*
X9226644Y-11166356D01*
X9297356Y-11166356D01*
X9297356Y-11420356D02*
X9297356Y-11349644D01*
X9226644Y-11349644D01*
X9226644Y-11420356D01*
X9297356Y-11420356D01*
X9297356Y-11674356D02*
X9297356Y-11603644D01*
X9226644Y-11603644D01*
X9226644Y-11674356D01*
X9297356Y-11674356D01*
X9297356Y-12896356D02*
X9297356Y-12825644D01*
X9226644Y-12825644D01*
X9226644Y-12896356D01*
X9297356Y-12896356D01*
X9297356Y-13150356D02*
X9297356Y-13079644D01*
X9226644Y-13079644D01*
X9226644Y-13150356D01*
X9297356Y-13150356D01*
X9297356Y-13404356D02*
X9297356Y-13333644D01*
X9226644Y-13333644D01*
X9226644Y-13404356D01*
X9297356Y-13404356D01*
X9297356Y-13658356D02*
X9297356Y-13587644D01*
X9226644Y-13587644D01*
X9226644Y-13658356D01*
X9297356Y-13658356D01*
X9297356Y-13912356D02*
X9297356Y-13841644D01*
X9226644Y-13841644D01*
X9226644Y-13912356D01*
X9297356Y-13912356D01*
X9297356Y-14166356D02*
X9297356Y-14095644D01*
X9226644Y-14095644D01*
X9226644Y-14166356D01*
X9297356Y-14166356D01*
X9297356Y-14420356D02*
X9297356Y-14349644D01*
X9226644Y-14349644D01*
X9226644Y-14420356D01*
X9297356Y-14420356D01*
X9297356Y-14674356D02*
X9297356Y-14603644D01*
X9226644Y-14603644D01*
X9226644Y-14674356D01*
X9297356Y-14674356D01*
X10527356Y-14535356D02*
X10527356Y-14464644D01*
X10456644Y-14464644D01*
X10456644Y-14535356D01*
X10527356Y-14535356D01*
X10535356Y-16035356D02*
X10535356Y-15964644D01*
X10464644Y-15964644D01*
X10464644Y-16035356D01*
X10535356Y-16035356D01*
X10781356Y-14535356D02*
X10781356Y-14464644D01*
X10710644Y-14464644D01*
X10710644Y-14535356D01*
X10781356Y-14535356D01*
X10789356Y-16035356D02*
X10789356Y-15964644D01*
X10718644Y-15964644D01*
X10718644Y-16035356D01*
X10789356Y-16035356D01*
X11035356Y-14535356D02*
X11035356Y-14464644D01*
X10964644Y-14464644D01*
X10964644Y-14535356D01*
X11035356Y-14535356D01*
X11043356Y-16035356D02*
X11043356Y-15964644D01*
X10972644Y-15964644D01*
X10972644Y-16035356D01*
X11043356Y-16035356D01*
X12285356Y-14535356D02*
X12285356Y-14464644D01*
X12214644Y-14464644D01*
X12214644Y-14535356D01*
X12285356Y-14535356D01*
X12285356Y-16035356D02*
X12285356Y-15964644D01*
X12214644Y-15964644D01*
X12214644Y-16035356D01*
X12285356Y-16035356D01*
X12539356Y-14535356D02*
X12539356Y-14464644D01*
X12468644Y-14464644D01*
X12468644Y-14535356D01*
X12539356Y-14535356D01*
X12539356Y-16035356D02*
X12539356Y-15964644D01*
X12468644Y-15964644D01*
X12468644Y-16035356D01*
X12539356Y-16035356D01*
X12793356Y-14535356D02*
X12793356Y-14464644D01*
X12722644Y-14464644D01*
X12722644Y-14535356D01*
X12793356Y-14535356D01*
X12793356Y-16035356D02*
X12793356Y-15964644D01*
X12722644Y-15964644D01*
X12722644Y-16035356D01*
X12793356Y-16035356D01*
X13757356Y-4130356D02*
X13757356Y-4059644D01*
X13686644Y-4059644D01*
X13686644Y-4130356D01*
X13757356Y-4130356D01*
X13757356Y-4384356D02*
X13757356Y-4313644D01*
X13686644Y-4313644D01*
X13686644Y-4384356D01*
X13757356Y-4384356D01*
X13757356Y-4638356D02*
X13757356Y-4567644D01*
X13686644Y-4567644D01*
X13686644Y-4638356D01*
X13757356Y-4638356D01*
X13757356Y-4892356D02*
X13757356Y-4821644D01*
X13686644Y-4821644D01*
X13686644Y-4892356D01*
X13757356Y-4892356D01*
X13757356Y-5146356D02*
X13757356Y-5075644D01*
X13686644Y-5075644D01*
X13686644Y-5146356D01*
X13757356Y-5146356D01*
X13757356Y-5400356D02*
X13757356Y-5329644D01*
X13686644Y-5329644D01*
X13686644Y-5400356D01*
X13757356Y-5400356D01*
X13757356Y-5654356D02*
X13757356Y-5583644D01*
X13686644Y-5583644D01*
X13686644Y-5654356D01*
X13757356Y-5654356D01*
X13757356Y-5908356D02*
X13757356Y-5837644D01*
X13686644Y-5837644D01*
X13686644Y-5908356D01*
X13757356Y-5908356D01*
X13757356Y-6162356D02*
X13757356Y-6091644D01*
X13686644Y-6091644D01*
X13686644Y-6162356D01*
X13757356Y-6162356D01*
X13757356Y-6416356D02*
X13757356Y-6345644D01*
X13686644Y-6345644D01*
X13686644Y-6416356D01*
X13757356Y-6416356D01*
X13757356Y-6670356D02*
X13757356Y-6599644D01*
X13686644Y-6599644D01*
X13686644Y-6670356D01*
X13757356Y-6670356D01*
X13757356Y-6924356D02*
X13757356Y-6853644D01*
X13686644Y-6853644D01*
X13686644Y-6924356D01*
X13757356Y-6924356D01*
X13757356Y-7178356D02*
X13757356Y-7107644D01*
X13686644Y-7107644D01*
X13686644Y-7178356D01*
X13757356Y-7178356D01*
X13757356Y-7432356D02*
X13757356Y-7361644D01*
X13686644Y-7361644D01*
X13686644Y-7432356D01*
X13757356Y-7432356D01*
X13757356Y-7686356D02*
X13757356Y-7615644D01*
X13686644Y-7615644D01*
X13686644Y-7686356D01*
X13757356Y-7686356D01*
X13757356Y-7940356D02*
X13757356Y-7869644D01*
X13686644Y-7869644D01*
X13686644Y-7940356D01*
X13757356Y-7940356D01*
X14035356Y-14535356D02*
X14035356Y-14464644D01*
X13964644Y-14464644D01*
X13964644Y-14535356D01*
X14035356Y-14535356D01*
X14035356Y-16035356D02*
X14035356Y-15964644D01*
X13964644Y-15964644D01*
X13964644Y-16035356D01*
X14035356Y-16035356D01*
X14289356Y-14535356D02*
X14289356Y-14464644D01*
X14218644Y-14464644D01*
X14218644Y-14535356D01*
X14289356Y-14535356D01*
X14289356Y-16035356D02*
X14289356Y-15964644D01*
X14218644Y-15964644D01*
X14218644Y-16035356D01*
X14289356Y-16035356D01*
X14543356Y-14535356D02*
X14543356Y-14464644D01*
X14472644Y-14464644D01*
X14472644Y-14535356D01*
X14543356Y-14535356D01*
X14543356Y-16035356D02*
X14543356Y-15964644D01*
X14472644Y-15964644D01*
X14472644Y-16035356D01*
X14543356Y-16035356D01*
X15281356Y-5146356D02*
X15281356Y-5075644D01*
X15210644Y-5075644D01*
X15210644Y-5146356D01*
X15281356Y-5146356D01*
X15281356Y-5400356D02*
X15281356Y-5329644D01*
X15210644Y-5329644D01*
X15210644Y-5400356D01*
X15281356Y-5400356D01*
X15281356Y-5654356D02*
X15281356Y-5583644D01*
X15210644Y-5583644D01*
X15210644Y-5654356D01*
X15281356Y-5654356D01*
X15281356Y-5908356D02*
X15281356Y-5837644D01*
X15210644Y-5837644D01*
X15210644Y-5908356D01*
X15281356Y-5908356D01*
X15281356Y-6162356D02*
X15281356Y-6091644D01*
X15210644Y-6091644D01*
X15210644Y-6162356D01*
X15281356Y-6162356D01*
X15281356Y-6416356D02*
X15281356Y-6345644D01*
X15210644Y-6345644D01*
X15210644Y-6416356D01*
X15281356Y-6416356D01*
X15281356Y-6670356D02*
X15281356Y-6599644D01*
X15210644Y-6599644D01*
X15210644Y-6670356D01*
X15281356Y-6670356D01*
X15281356Y-6924356D02*
X15281356Y-6853644D01*
X15210644Y-6853644D01*
X15210644Y-6924356D01*
X15281356Y-6924356D01*
X15785356Y-14535356D02*
X15785356Y-14464644D01*
X15714644Y-14464644D01*
X15714644Y-14535356D01*
X15785356Y-14535356D01*
X15785356Y-16035356D02*
X15785356Y-15964644D01*
X15714644Y-15964644D01*
X15714644Y-16035356D01*
X15785356Y-16035356D01*
X15794356Y-11585356D02*
X15794356Y-11514644D01*
X15723644Y-11514644D01*
X15723644Y-11585356D01*
X15794356Y-11585356D01*
X16039356Y-14535356D02*
X16039356Y-14464644D01*
X15968644Y-14464644D01*
X15968644Y-14535356D01*
X16039356Y-14535356D01*
X16039356Y-16035356D02*
X16039356Y-15964644D01*
X15968644Y-15964644D01*
X15968644Y-16035356D01*
X16039356Y-16035356D01*
X16293356Y-14535356D02*
X16293356Y-14464644D01*
X16222644Y-14464644D01*
X16222644Y-14535356D01*
X16293356Y-14535356D01*
X16293356Y-16035356D02*
X16293356Y-15964644D01*
X16222644Y-15964644D01*
X16222644Y-16035356D01*
X16293356Y-16035356D01*
X16476356Y-11585356D02*
X16476356Y-11514644D01*
X16405644Y-11514644D01*
X16405644Y-11585356D01*
X16476356Y-11585356D01*
X17781356Y-7209356D02*
X17781356Y-7138644D01*
X17710644Y-7138644D01*
X17710644Y-7209356D01*
X17781356Y-7209356D01*
X17781356Y-7463356D02*
X17781356Y-7392644D01*
X17710644Y-7392644D01*
X17710644Y-7463356D01*
X17781356Y-7463356D01*
X17781356Y-7717356D02*
X17781356Y-7646644D01*
X17710644Y-7646644D01*
X17710644Y-7717356D01*
X17781356Y-7717356D01*
X17781356Y-7971356D02*
X17781356Y-7900644D01*
X17710644Y-7900644D01*
X17710644Y-7971356D01*
X17781356Y-7971356D01*
X17781356Y-8225356D02*
X17781356Y-8154644D01*
X17710644Y-8154644D01*
X17710644Y-8225356D01*
X17781356Y-8225356D01*
X17781356Y-8479356D02*
X17781356Y-8408644D01*
X17710644Y-8408644D01*
X17710644Y-8479356D01*
X17781356Y-8479356D01*
X17781356Y-8733356D02*
X17781356Y-8662644D01*
X17710644Y-8662644D01*
X17710644Y-8733356D01*
X17781356Y-8733356D01*
X17781356Y-8987356D02*
X17781356Y-8916644D01*
X17710644Y-8916644D01*
X17710644Y-8987356D01*
X17781356Y-8987356D01*
X17781356Y-9241356D02*
X17781356Y-9170644D01*
X17710644Y-9170644D01*
X17710644Y-9241356D01*
X17781356Y-9241356D01*
X17781356Y-9495356D02*
X17781356Y-9424644D01*
X17710644Y-9424644D01*
X17710644Y-9495356D01*
X17781356Y-9495356D01*
X17781356Y-9749356D02*
X17781356Y-9678644D01*
X17710644Y-9678644D01*
X17710644Y-9749356D01*
X17781356Y-9749356D01*
X17781356Y-10003356D02*
X17781356Y-9932644D01*
X17710644Y-9932644D01*
X17710644Y-10003356D01*
X17781356Y-10003356D01*
X17781356Y-10257356D02*
X17781356Y-10186644D01*
X17710644Y-10186644D01*
X17710644Y-10257356D01*
X17781356Y-10257356D01*
X17781356Y-10511356D02*
X17781356Y-10440644D01*
X17710644Y-10440644D01*
X17710644Y-10511356D01*
X17781356Y-10511356D01*
X17781356Y-10765356D02*
X17781356Y-10694644D01*
X17710644Y-10694644D01*
X17710644Y-10765356D01*
X17781356Y-10765356D01*
X17781356Y-11019356D02*
X17781356Y-10948644D01*
X17710644Y-10948644D01*
X17710644Y-11019356D01*
X17781356Y-11019356D01*
X17781356Y-11273356D02*
X17781356Y-11202644D01*
X17710644Y-11202644D01*
X17710644Y-11273356D01*
X17781356Y-11273356D01*
X17781356Y-11527356D02*
X17781356Y-11456644D01*
X17710644Y-11456644D01*
X17710644Y-11527356D01*
X17781356Y-11527356D01*
X17781356Y-11781356D02*
X17781356Y-11710644D01*
X17710644Y-11710644D01*
X17710644Y-11781356D01*
X17781356Y-11781356D01*
X17781356Y-12035356D02*
X17781356Y-11964644D01*
X17710644Y-11964644D01*
X17710644Y-12035356D01*
X17781356Y-12035356D01*
X18035356Y-7209356D02*
X18035356Y-7138644D01*
X17964644Y-7138644D01*
X17964644Y-7209356D01*
X18035356Y-7209356D01*
X18035356Y-7463356D02*
X18035356Y-7392644D01*
X17964644Y-7392644D01*
X17964644Y-7463356D01*
X18035356Y-7463356D01*
X18035356Y-7717356D02*
X18035356Y-7646644D01*
X17964644Y-7646644D01*
X17964644Y-7717356D01*
X18035356Y-7717356D01*
X18035356Y-7971356D02*
X18035356Y-7900644D01*
X17964644Y-7900644D01*
X17964644Y-7971356D01*
X18035356Y-7971356D01*
X18035356Y-8225356D02*
X18035356Y-8154644D01*
X17964644Y-8154644D01*
X17964644Y-8225356D01*
X18035356Y-8225356D01*
X18035356Y-8479356D02*
X18035356Y-8408644D01*
X17964644Y-8408644D01*
X17964644Y-8479356D01*
X18035356Y-8479356D01*
X18035356Y-8733356D02*
X18035356Y-8662644D01*
X17964644Y-8662644D01*
X17964644Y-8733356D01*
X18035356Y-8733356D01*
X18035356Y-8987356D02*
X18035356Y-8916644D01*
X17964644Y-8916644D01*
X17964644Y-8987356D01*
X18035356Y-8987356D01*
X18035356Y-9241356D02*
X18035356Y-9170644D01*
X17964644Y-9170644D01*
X17964644Y-9241356D01*
X18035356Y-9241356D01*
X18035356Y-9495356D02*
X18035356Y-9424644D01*
X17964644Y-9424644D01*
X17964644Y-9495356D01*
X18035356Y-9495356D01*
X18035356Y-9749356D02*
X18035356Y-9678644D01*
X17964644Y-9678644D01*
X17964644Y-9749356D01*
X18035356Y-9749356D01*
X18035356Y-10003356D02*
X18035356Y-9932644D01*
X17964644Y-9932644D01*
X17964644Y-10003356D01*
X18035356Y-10003356D01*
X18035356Y-10257356D02*
X18035356Y-10186644D01*
X17964644Y-10186644D01*
X17964644Y-10257356D01*
X18035356Y-10257356D01*
X18035356Y-10511356D02*
X18035356Y-10440644D01*
X17964644Y-10440644D01*
X17964644Y-10511356D01*
X18035356Y-10511356D01*
X18035356Y-10765356D02*
X18035356Y-10694644D01*
X17964644Y-10694644D01*
X17964644Y-10765356D01*
X18035356Y-10765356D01*
X18035356Y-11019356D02*
X18035356Y-10948644D01*
X17964644Y-10948644D01*
X17964644Y-11019356D01*
X18035356Y-11019356D01*
X18035356Y-11273356D02*
X18035356Y-11202644D01*
X17964644Y-11202644D01*
X17964644Y-11273356D01*
X18035356Y-11273356D01*
X18035356Y-11527356D02*
X18035356Y-11456644D01*
X17964644Y-11456644D01*
X17964644Y-11527356D01*
X18035356Y-11527356D01*
X18035356Y-11781356D02*
X18035356Y-11710644D01*
X17964644Y-11710644D01*
X17964644Y-11781356D01*
X18035356Y-11781356D01*
X18035356Y-12035356D02*
X18035356Y-11964644D01*
X17964644Y-11964644D01*
X17964644Y-12035356D01*
X18035356Y-12035356D01*
X19281356Y-7209356D02*
X19281356Y-7138644D01*
X19210644Y-7138644D01*
X19210644Y-7209356D01*
X19281356Y-7209356D01*
X19281356Y-7463356D02*
X19281356Y-7392644D01*
X19210644Y-7392644D01*
X19210644Y-7463356D01*
X19281356Y-7463356D01*
X19281356Y-7717356D02*
X19281356Y-7646644D01*
X19210644Y-7646644D01*
X19210644Y-7717356D01*
X19281356Y-7717356D01*
X19281356Y-7971356D02*
X19281356Y-7900644D01*
X19210644Y-7900644D01*
X19210644Y-7971356D01*
X19281356Y-7971356D01*
X19281356Y-8225356D02*
X19281356Y-8154644D01*
X19210644Y-8154644D01*
X19210644Y-8225356D01*
X19281356Y-8225356D01*
X19281356Y-8479356D02*
X19281356Y-8408644D01*
X19210644Y-8408644D01*
X19210644Y-8479356D01*
X19281356Y-8479356D01*
X19281356Y-8733356D02*
X19281356Y-8662644D01*
X19210644Y-8662644D01*
X19210644Y-8733356D01*
X19281356Y-8733356D01*
X19281356Y-8987356D02*
X19281356Y-8916644D01*
X19210644Y-8916644D01*
X19210644Y-8987356D01*
X19281356Y-8987356D01*
X19281356Y-9241356D02*
X19281356Y-9170644D01*
X19210644Y-9170644D01*
X19210644Y-9241356D01*
X19281356Y-9241356D01*
X19281356Y-9495356D02*
X19281356Y-9424644D01*
X19210644Y-9424644D01*
X19210644Y-9495356D01*
X19281356Y-9495356D01*
X19281356Y-9749356D02*
X19281356Y-9678644D01*
X19210644Y-9678644D01*
X19210644Y-9749356D01*
X19281356Y-9749356D01*
X19281356Y-10003356D02*
X19281356Y-9932644D01*
X19210644Y-9932644D01*
X19210644Y-10003356D01*
X19281356Y-10003356D01*
X19281356Y-10257356D02*
X19281356Y-10186644D01*
X19210644Y-10186644D01*
X19210644Y-10257356D01*
X19281356Y-10257356D01*
X19281356Y-10511356D02*
X19281356Y-10440644D01*
X19210644Y-10440644D01*
X19210644Y-10511356D01*
X19281356Y-10511356D01*
X19281356Y-10765356D02*
X19281356Y-10694644D01*
X19210644Y-10694644D01*
X19210644Y-10765356D01*
X19281356Y-10765356D01*
X19281356Y-11019356D02*
X19281356Y-10948644D01*
X19210644Y-10948644D01*
X19210644Y-11019356D01*
X19281356Y-11019356D01*
X19281356Y-11273356D02*
X19281356Y-11202644D01*
X19210644Y-11202644D01*
X19210644Y-11273356D01*
X19281356Y-11273356D01*
X19281356Y-11527356D02*
X19281356Y-11456644D01*
X19210644Y-11456644D01*
X19210644Y-11527356D01*
X19281356Y-11527356D01*
X19281356Y-11781356D02*
X19281356Y-11710644D01*
X19210644Y-11710644D01*
X19210644Y-11781356D01*
X19281356Y-11781356D01*
X19281356Y-12035356D02*
X19281356Y-11964644D01*
X19210644Y-11964644D01*
X19210644Y-12035356D01*
X19281356Y-12035356D01*
X19535356Y-7209356D02*
X19535356Y-7138644D01*
X19464644Y-7138644D01*
X19464644Y-7209356D01*
X19535356Y-7209356D01*
X19535356Y-7463356D02*
X19535356Y-7392644D01*
X19464644Y-7392644D01*
X19464644Y-7463356D01*
X19535356Y-7463356D01*
X19535356Y-7717356D02*
X19535356Y-7646644D01*
X19464644Y-7646644D01*
X19464644Y-7717356D01*
X19535356Y-7717356D01*
X19535356Y-7971356D02*
X19535356Y-7900644D01*
X19464644Y-7900644D01*
X19464644Y-7971356D01*
X19535356Y-7971356D01*
X19535356Y-8225356D02*
X19535356Y-8154644D01*
X19464644Y-8154644D01*
X19464644Y-8225356D01*
X19535356Y-8225356D01*
X19535356Y-8479356D02*
X19535356Y-8408644D01*
X19464644Y-8408644D01*
X19464644Y-8479356D01*
X19535356Y-8479356D01*
X19535356Y-8733356D02*
X19535356Y-8662644D01*
X19464644Y-8662644D01*
X19464644Y-8733356D01*
X19535356Y-8733356D01*
X19535356Y-8987356D02*
X19535356Y-8916644D01*
X19464644Y-8916644D01*
X19464644Y-8987356D01*
X19535356Y-8987356D01*
X19535356Y-9241356D02*
X19535356Y-9170644D01*
X19464644Y-9170644D01*
X19464644Y-9241356D01*
X19535356Y-9241356D01*
X19535356Y-9495356D02*
X19535356Y-9424644D01*
X19464644Y-9424644D01*
X19464644Y-9495356D01*
X19535356Y-9495356D01*
X19535356Y-9749356D02*
X19535356Y-9678644D01*
X19464644Y-9678644D01*
X19464644Y-9749356D01*
X19535356Y-9749356D01*
X19535356Y-10003356D02*
X19535356Y-9932644D01*
X19464644Y-9932644D01*
X19464644Y-10003356D01*
X19535356Y-10003356D01*
X19535356Y-10257356D02*
X19535356Y-10186644D01*
X19464644Y-10186644D01*
X19464644Y-10257356D01*
X19535356Y-10257356D01*
X19535356Y-10511356D02*
X19535356Y-10440644D01*
X19464644Y-10440644D01*
X19464644Y-10511356D01*
X19535356Y-10511356D01*
X19535356Y-10765356D02*
X19535356Y-10694644D01*
X19464644Y-10694644D01*
X19464644Y-10765356D01*
X19535356Y-10765356D01*
X19535356Y-11019356D02*
X19535356Y-10948644D01*
X19464644Y-10948644D01*
X19464644Y-11019356D01*
X19535356Y-11019356D01*
X19535356Y-11273356D02*
X19535356Y-11202644D01*
X19464644Y-11202644D01*
X19464644Y-11273356D01*
X19535356Y-11273356D01*
X19535356Y-11527356D02*
X19535356Y-11456644D01*
X19464644Y-11456644D01*
X19464644Y-11527356D01*
X19535356Y-11527356D01*
X19535356Y-11781356D02*
X19535356Y-11710644D01*
X19464644Y-11710644D01*
X19464644Y-11781356D01*
X19535356Y-11781356D01*
X19535356Y-12035356D02*
X19535356Y-11964644D01*
X19464644Y-11964644D01*
X19464644Y-12035356D01*
X19535356Y-12035356D01*
D16*
X6500000Y-4160000D02*
X6660000Y-4000000D01*
X6500000Y-3840000D01*
X6340000Y-4000000D01*
X6500000Y-4160000D01*
X6500000Y-16160000D02*
X6660000Y-16000000D01*
X6500000Y-15840000D01*
X6340000Y-16000000D01*
X6500000Y-16160000D01*
X19500000Y-4160000D02*
X19660000Y-4000000D01*
X19500000Y-3840000D01*
X19340000Y-4000000D01*
X19500000Y-4160000D01*
X19500000Y-16160000D02*
X19660000Y-16000000D01*
X19500000Y-15840000D01*
X19340000Y-16000000D01*
X19500000Y-16160000D01*
D11*
X6255119Y-16812976D02*
X6255119Y-16612976D01*
X6302738Y-16612976D01*
X6331309Y-16622500D01*
X6350357Y-16641548D01*
X6359881Y-16660595D01*
X6369405Y-16698690D01*
X6369405Y-16727262D01*
X6359881Y-16765357D01*
X6350357Y-16784405D01*
X6331309Y-16803452D01*
X6302738Y-16812976D01*
X6255119Y-16812976D01*
X6455119Y-16812976D02*
X6455119Y-16679643D01*
X6455119Y-16717738D02*
X6464643Y-16698690D01*
X6474167Y-16689167D01*
X6493214Y-16679643D01*
X6512262Y-16679643D01*
X6578928Y-16812976D02*
X6578928Y-16679643D01*
X6578928Y-16612976D02*
X6569405Y-16622500D01*
X6578928Y-16632024D01*
X6588452Y-16622500D01*
X6578928Y-16612976D01*
X6578928Y-16632024D01*
X6702738Y-16812976D02*
X6683690Y-16803452D01*
X6674167Y-16784405D01*
X6674167Y-16612976D01*
X6807500Y-16812976D02*
X6788452Y-16803452D01*
X6778928Y-16784405D01*
X6778928Y-16612976D01*
X7036071Y-16812976D02*
X7036071Y-16612976D01*
X7102738Y-16755833D01*
X7169405Y-16612976D01*
X7169405Y-16812976D01*
X7350357Y-16812976D02*
X7350357Y-16708214D01*
X7340833Y-16689167D01*
X7321786Y-16679643D01*
X7283690Y-16679643D01*
X7264643Y-16689167D01*
X7350357Y-16803452D02*
X7331309Y-16812976D01*
X7283690Y-16812976D01*
X7264643Y-16803452D01*
X7255119Y-16784405D01*
X7255119Y-16765357D01*
X7264643Y-16746309D01*
X7283690Y-16736786D01*
X7331309Y-16736786D01*
X7350357Y-16727262D01*
X7445595Y-16679643D02*
X7445595Y-16879643D01*
X7445595Y-16689167D02*
X7464643Y-16679643D01*
X7502738Y-16679643D01*
X7521786Y-16689167D01*
X7531309Y-16698690D01*
X7540833Y-16717738D01*
X7540833Y-16774881D01*
X7531309Y-16793929D01*
X7521786Y-16803452D01*
X7502738Y-16812976D01*
X7464643Y-16812976D01*
X7445595Y-16803452D01*
X7626548Y-16793929D02*
X7636071Y-16803452D01*
X7626548Y-16812976D01*
X7617024Y-16803452D01*
X7626548Y-16793929D01*
X7626548Y-16812976D01*
X7626548Y-16689167D02*
X7636071Y-16698690D01*
X7626548Y-16708214D01*
X7617024Y-16698690D01*
X7626548Y-16689167D01*
X7626548Y-16708214D01*
D12*
X5957500Y-17122500D02*
X5997500Y-17162500D01*
X5997500Y-17122500D02*
X5957500Y-17162500D01*
D11*
X6293214Y-17032976D02*
X6312262Y-17032976D01*
X6331309Y-17042500D01*
X6340833Y-17052024D01*
X6350357Y-17071071D01*
X6359881Y-17109167D01*
X6359881Y-17156786D01*
X6350357Y-17194881D01*
X6340833Y-17213929D01*
X6331309Y-17223452D01*
X6312262Y-17232976D01*
X6293214Y-17232976D01*
X6274167Y-17223452D01*
X6264643Y-17213929D01*
X6255119Y-17194881D01*
X6245595Y-17156786D01*
X6245595Y-17109167D01*
X6255119Y-17071071D01*
X6264643Y-17052024D01*
X6274167Y-17042500D01*
X6293214Y-17032976D01*
X6445595Y-17213929D02*
X6455119Y-17223452D01*
X6445595Y-17232976D01*
X6436071Y-17223452D01*
X6445595Y-17213929D01*
X6445595Y-17232976D01*
X6626548Y-17099643D02*
X6626548Y-17232976D01*
X6578928Y-17023452D02*
X6531309Y-17166310D01*
X6655119Y-17166310D01*
X6769405Y-17032976D02*
X6788452Y-17032976D01*
X6807500Y-17042500D01*
X6817024Y-17052024D01*
X6826548Y-17071071D01*
X6836071Y-17109167D01*
X6836071Y-17156786D01*
X6826548Y-17194881D01*
X6817024Y-17213929D01*
X6807500Y-17223452D01*
X6788452Y-17232976D01*
X6769405Y-17232976D01*
X6750357Y-17223452D01*
X6740833Y-17213929D01*
X6731309Y-17194881D01*
X6721786Y-17156786D01*
X6721786Y-17109167D01*
X6731309Y-17071071D01*
X6740833Y-17052024D01*
X6750357Y-17042500D01*
X6769405Y-17032976D01*
X6959881Y-17032976D02*
X6978928Y-17032976D01*
X6997976Y-17042500D01*
X7007500Y-17052024D01*
X7017024Y-17071071D01*
X7026548Y-17109167D01*
X7026548Y-17156786D01*
X7017024Y-17194881D01*
X7007500Y-17213929D01*
X6997976Y-17223452D01*
X6978928Y-17232976D01*
X6959881Y-17232976D01*
X6940833Y-17223452D01*
X6931309Y-17213929D01*
X6921786Y-17194881D01*
X6912262Y-17156786D01*
X6912262Y-17109167D01*
X6921786Y-17071071D01*
X6931309Y-17052024D01*
X6940833Y-17042500D01*
X6959881Y-17032976D01*
X7112262Y-17232976D02*
X7112262Y-17099643D01*
X7112262Y-17118690D02*
X7121786Y-17109167D01*
X7140833Y-17099643D01*
X7169405Y-17099643D01*
X7188452Y-17109167D01*
X7197976Y-17128214D01*
X7197976Y-17232976D01*
X7197976Y-17128214D02*
X7207500Y-17109167D01*
X7226548Y-17099643D01*
X7255119Y-17099643D01*
X7274167Y-17109167D01*
X7283690Y-17128214D01*
X7283690Y-17232976D01*
X7378928Y-17232976D02*
X7378928Y-17099643D01*
X7378928Y-17118690D02*
X7388452Y-17109167D01*
X7407500Y-17099643D01*
X7436071Y-17099643D01*
X7455119Y-17109167D01*
X7464643Y-17128214D01*
X7464643Y-17232976D01*
X7464643Y-17128214D02*
X7474167Y-17109167D01*
X7493214Y-17099643D01*
X7521786Y-17099643D01*
X7540833Y-17109167D01*
X7550357Y-17128214D01*
X7550357Y-17232976D01*
X7940833Y-17023452D02*
X7769405Y-17280595D01*
X8197976Y-17032976D02*
X8217024Y-17032976D01*
X8236071Y-17042500D01*
X8245595Y-17052024D01*
X8255119Y-17071071D01*
X8264643Y-17109167D01*
X8264643Y-17156786D01*
X8255119Y-17194881D01*
X8245595Y-17213929D01*
X8236071Y-17223452D01*
X8217024Y-17232976D01*
X8197976Y-17232976D01*
X8178928Y-17223452D01*
X8169405Y-17213929D01*
X8159881Y-17194881D01*
X8150357Y-17156786D01*
X8150357Y-17109167D01*
X8159881Y-17071071D01*
X8169405Y-17052024D01*
X8178928Y-17042500D01*
X8197976Y-17032976D01*
X8350357Y-17213929D02*
X8359881Y-17223452D01*
X8350357Y-17232976D01*
X8340833Y-17223452D01*
X8350357Y-17213929D01*
X8350357Y-17232976D01*
X8483690Y-17032976D02*
X8502738Y-17032976D01*
X8521786Y-17042500D01*
X8531310Y-17052024D01*
X8540833Y-17071071D01*
X8550357Y-17109167D01*
X8550357Y-17156786D01*
X8540833Y-17194881D01*
X8531310Y-17213929D01*
X8521786Y-17223452D01*
X8502738Y-17232976D01*
X8483690Y-17232976D01*
X8464643Y-17223452D01*
X8455119Y-17213929D01*
X8445595Y-17194881D01*
X8436071Y-17156786D01*
X8436071Y-17109167D01*
X8445595Y-17071071D01*
X8455119Y-17052024D01*
X8464643Y-17042500D01*
X8483690Y-17032976D01*
X8740833Y-17232976D02*
X8626548Y-17232976D01*
X8683690Y-17232976D02*
X8683690Y-17032976D01*
X8664643Y-17061548D01*
X8645595Y-17080595D01*
X8626548Y-17090119D01*
X8921786Y-17032976D02*
X8826548Y-17032976D01*
X8817024Y-17128214D01*
X8826548Y-17118690D01*
X8845595Y-17109167D01*
X8893214Y-17109167D01*
X8912262Y-17118690D01*
X8921786Y-17128214D01*
X8931310Y-17147262D01*
X8931310Y-17194881D01*
X8921786Y-17213929D01*
X8912262Y-17223452D01*
X8893214Y-17232976D01*
X8845595Y-17232976D01*
X8826548Y-17223452D01*
X8817024Y-17213929D01*
X8997976Y-17032976D02*
X9131310Y-17032976D01*
X9045595Y-17232976D01*
X9197976Y-17032976D02*
X9197976Y-17071071D01*
X9274167Y-17032976D02*
X9274167Y-17071071D01*
X9569405Y-17309167D02*
X9559881Y-17299643D01*
X9540833Y-17271071D01*
X9531310Y-17252024D01*
X9521786Y-17223452D01*
X9512262Y-17175833D01*
X9512262Y-17137738D01*
X9521786Y-17090119D01*
X9531310Y-17061548D01*
X9540833Y-17042500D01*
X9559881Y-17013929D01*
X9569405Y-17004405D01*
X9626548Y-17032976D02*
X9750357Y-17032976D01*
X9683690Y-17109167D01*
X9712262Y-17109167D01*
X9731310Y-17118690D01*
X9740833Y-17128214D01*
X9750357Y-17147262D01*
X9750357Y-17194881D01*
X9740833Y-17213929D01*
X9731310Y-17223452D01*
X9712262Y-17232976D01*
X9655119Y-17232976D01*
X9636071Y-17223452D01*
X9626548Y-17213929D01*
X9826548Y-17052024D02*
X9836071Y-17042500D01*
X9855119Y-17032976D01*
X9902738Y-17032976D01*
X9921786Y-17042500D01*
X9931310Y-17052024D01*
X9940833Y-17071071D01*
X9940833Y-17090119D01*
X9931310Y-17118690D01*
X9817024Y-17232976D01*
X9940833Y-17232976D01*
X10178929Y-17232976D02*
X10178929Y-17032976D01*
X10264643Y-17232976D02*
X10264643Y-17128214D01*
X10255119Y-17109167D01*
X10236071Y-17099643D01*
X10207500Y-17099643D01*
X10188452Y-17109167D01*
X10178929Y-17118690D01*
X10388452Y-17232976D02*
X10369405Y-17223452D01*
X10359881Y-17213929D01*
X10350357Y-17194881D01*
X10350357Y-17137738D01*
X10359881Y-17118690D01*
X10369405Y-17109167D01*
X10388452Y-17099643D01*
X10417024Y-17099643D01*
X10436071Y-17109167D01*
X10445595Y-17118690D01*
X10455119Y-17137738D01*
X10455119Y-17194881D01*
X10445595Y-17213929D01*
X10436071Y-17223452D01*
X10417024Y-17232976D01*
X10388452Y-17232976D01*
X10569405Y-17232976D02*
X10550357Y-17223452D01*
X10540833Y-17204405D01*
X10540833Y-17032976D01*
X10721786Y-17223452D02*
X10702738Y-17232976D01*
X10664643Y-17232976D01*
X10645595Y-17223452D01*
X10636071Y-17204405D01*
X10636071Y-17128214D01*
X10645595Y-17109167D01*
X10664643Y-17099643D01*
X10702738Y-17099643D01*
X10721786Y-17109167D01*
X10731310Y-17128214D01*
X10731310Y-17147262D01*
X10636071Y-17166310D01*
X10807500Y-17223452D02*
X10826548Y-17232976D01*
X10864643Y-17232976D01*
X10883690Y-17223452D01*
X10893214Y-17204405D01*
X10893214Y-17194881D01*
X10883690Y-17175833D01*
X10864643Y-17166310D01*
X10836071Y-17166310D01*
X10817024Y-17156786D01*
X10807500Y-17137738D01*
X10807500Y-17128214D01*
X10817024Y-17109167D01*
X10836071Y-17099643D01*
X10864643Y-17099643D01*
X10883690Y-17109167D01*
X10959881Y-17309167D02*
X10969405Y-17299643D01*
X10988452Y-17271071D01*
X10997976Y-17252024D01*
X11007500Y-17223452D01*
X11017024Y-17175833D01*
X11017024Y-17137738D01*
X11007500Y-17090119D01*
X10997976Y-17061548D01*
X10988452Y-17042500D01*
X10969405Y-17013929D01*
X10959881Y-17004405D01*
D13*
X5997500Y-17406500D02*
G75*
G03*
X5997500Y-17406500I-25000J0D01*
G01*
D11*
X6293214Y-17296976D02*
X6312262Y-17296976D01*
X6331309Y-17306500D01*
X6340833Y-17316024D01*
X6350357Y-17335071D01*
X6359881Y-17373167D01*
X6359881Y-17420786D01*
X6350357Y-17458881D01*
X6340833Y-17477929D01*
X6331309Y-17487452D01*
X6312262Y-17496976D01*
X6293214Y-17496976D01*
X6274167Y-17487452D01*
X6264643Y-17477929D01*
X6255119Y-17458881D01*
X6245595Y-17420786D01*
X6245595Y-17373167D01*
X6255119Y-17335071D01*
X6264643Y-17316024D01*
X6274167Y-17306500D01*
X6293214Y-17296976D01*
X6445595Y-17477929D02*
X6455119Y-17487452D01*
X6445595Y-17496976D01*
X6436071Y-17487452D01*
X6445595Y-17477929D01*
X6445595Y-17496976D01*
X6636071Y-17296976D02*
X6540833Y-17296976D01*
X6531309Y-17392214D01*
X6540833Y-17382690D01*
X6559881Y-17373167D01*
X6607500Y-17373167D01*
X6626548Y-17382690D01*
X6636071Y-17392214D01*
X6645595Y-17411262D01*
X6645595Y-17458881D01*
X6636071Y-17477929D01*
X6626548Y-17487452D01*
X6607500Y-17496976D01*
X6559881Y-17496976D01*
X6540833Y-17487452D01*
X6531309Y-17477929D01*
X6769405Y-17296976D02*
X6788452Y-17296976D01*
X6807500Y-17306500D01*
X6817024Y-17316024D01*
X6826548Y-17335071D01*
X6836071Y-17373167D01*
X6836071Y-17420786D01*
X6826548Y-17458881D01*
X6817024Y-17477929D01*
X6807500Y-17487452D01*
X6788452Y-17496976D01*
X6769405Y-17496976D01*
X6750357Y-17487452D01*
X6740833Y-17477929D01*
X6731309Y-17458881D01*
X6721786Y-17420786D01*
X6721786Y-17373167D01*
X6731309Y-17335071D01*
X6740833Y-17316024D01*
X6750357Y-17306500D01*
X6769405Y-17296976D01*
X6959881Y-17296976D02*
X6978928Y-17296976D01*
X6997976Y-17306500D01*
X7007500Y-17316024D01*
X7017024Y-17335071D01*
X7026548Y-17373167D01*
X7026548Y-17420786D01*
X7017024Y-17458881D01*
X7007500Y-17477929D01*
X6997976Y-17487452D01*
X6978928Y-17496976D01*
X6959881Y-17496976D01*
X6940833Y-17487452D01*
X6931309Y-17477929D01*
X6921786Y-17458881D01*
X6912262Y-17420786D01*
X6912262Y-17373167D01*
X6921786Y-17335071D01*
X6931309Y-17316024D01*
X6940833Y-17306500D01*
X6959881Y-17296976D01*
X7112262Y-17496976D02*
X7112262Y-17363643D01*
X7112262Y-17382690D02*
X7121786Y-17373167D01*
X7140833Y-17363643D01*
X7169405Y-17363643D01*
X7188452Y-17373167D01*
X7197976Y-17392214D01*
X7197976Y-17496976D01*
X7197976Y-17392214D02*
X7207500Y-17373167D01*
X7226548Y-17363643D01*
X7255119Y-17363643D01*
X7274167Y-17373167D01*
X7283690Y-17392214D01*
X7283690Y-17496976D01*
X7378928Y-17496976D02*
X7378928Y-17363643D01*
X7378928Y-17382690D02*
X7388452Y-17373167D01*
X7407500Y-17363643D01*
X7436071Y-17363643D01*
X7455119Y-17373167D01*
X7464643Y-17392214D01*
X7464643Y-17496976D01*
X7464643Y-17392214D02*
X7474167Y-17373167D01*
X7493214Y-17363643D01*
X7521786Y-17363643D01*
X7540833Y-17373167D01*
X7550357Y-17392214D01*
X7550357Y-17496976D01*
X7940833Y-17287452D02*
X7769405Y-17544595D01*
X8197976Y-17296976D02*
X8217024Y-17296976D01*
X8236071Y-17306500D01*
X8245595Y-17316024D01*
X8255119Y-17335071D01*
X8264643Y-17373167D01*
X8264643Y-17420786D01*
X8255119Y-17458881D01*
X8245595Y-17477929D01*
X8236071Y-17487452D01*
X8217024Y-17496976D01*
X8197976Y-17496976D01*
X8178928Y-17487452D01*
X8169405Y-17477929D01*
X8159881Y-17458881D01*
X8150357Y-17420786D01*
X8150357Y-17373167D01*
X8159881Y-17335071D01*
X8169405Y-17316024D01*
X8178928Y-17306500D01*
X8197976Y-17296976D01*
X8350357Y-17477929D02*
X8359881Y-17487452D01*
X8350357Y-17496976D01*
X8340833Y-17487452D01*
X8350357Y-17477929D01*
X8350357Y-17496976D01*
X8483690Y-17296976D02*
X8502738Y-17296976D01*
X8521786Y-17306500D01*
X8531310Y-17316024D01*
X8540833Y-17335071D01*
X8550357Y-17373167D01*
X8550357Y-17420786D01*
X8540833Y-17458881D01*
X8531310Y-17477929D01*
X8521786Y-17487452D01*
X8502738Y-17496976D01*
X8483690Y-17496976D01*
X8464643Y-17487452D01*
X8455119Y-17477929D01*
X8445595Y-17458881D01*
X8436071Y-17420786D01*
X8436071Y-17373167D01*
X8445595Y-17335071D01*
X8455119Y-17316024D01*
X8464643Y-17306500D01*
X8483690Y-17296976D01*
X8740833Y-17496976D02*
X8626548Y-17496976D01*
X8683690Y-17496976D02*
X8683690Y-17296976D01*
X8664643Y-17325548D01*
X8645595Y-17344595D01*
X8626548Y-17354119D01*
X8836071Y-17496976D02*
X8874167Y-17496976D01*
X8893214Y-17487452D01*
X8902738Y-17477929D01*
X8921786Y-17449357D01*
X8931310Y-17411262D01*
X8931310Y-17335071D01*
X8921786Y-17316024D01*
X8912262Y-17306500D01*
X8893214Y-17296976D01*
X8855119Y-17296976D01*
X8836071Y-17306500D01*
X8826548Y-17316024D01*
X8817024Y-17335071D01*
X8817024Y-17382690D01*
X8826548Y-17401738D01*
X8836071Y-17411262D01*
X8855119Y-17420786D01*
X8893214Y-17420786D01*
X8912262Y-17411262D01*
X8921786Y-17401738D01*
X8931310Y-17382690D01*
X8997976Y-17296976D02*
X9131310Y-17296976D01*
X9045595Y-17496976D01*
X9197976Y-17296976D02*
X9197976Y-17335071D01*
X9274167Y-17296976D02*
X9274167Y-17335071D01*
X9569405Y-17573167D02*
X9559881Y-17563643D01*
X9540833Y-17535071D01*
X9531310Y-17516024D01*
X9521786Y-17487452D01*
X9512262Y-17439833D01*
X9512262Y-17401738D01*
X9521786Y-17354119D01*
X9531310Y-17325548D01*
X9540833Y-17306500D01*
X9559881Y-17277929D01*
X9569405Y-17268405D01*
X9750357Y-17496976D02*
X9636071Y-17496976D01*
X9693214Y-17496976D02*
X9693214Y-17296976D01*
X9674167Y-17325548D01*
X9655119Y-17344595D01*
X9636071Y-17354119D01*
X9817024Y-17296976D02*
X9940833Y-17296976D01*
X9874167Y-17373167D01*
X9902738Y-17373167D01*
X9921786Y-17382690D01*
X9931310Y-17392214D01*
X9940833Y-17411262D01*
X9940833Y-17458881D01*
X9931310Y-17477929D01*
X9921786Y-17487452D01*
X9902738Y-17496976D01*
X9845595Y-17496976D01*
X9826548Y-17487452D01*
X9817024Y-17477929D01*
X10178929Y-17496976D02*
X10178929Y-17296976D01*
X10264643Y-17496976D02*
X10264643Y-17392214D01*
X10255119Y-17373167D01*
X10236071Y-17363643D01*
X10207500Y-17363643D01*
X10188452Y-17373167D01*
X10178929Y-17382690D01*
X10388452Y-17496976D02*
X10369405Y-17487452D01*
X10359881Y-17477929D01*
X10350357Y-17458881D01*
X10350357Y-17401738D01*
X10359881Y-17382690D01*
X10369405Y-17373167D01*
X10388452Y-17363643D01*
X10417024Y-17363643D01*
X10436071Y-17373167D01*
X10445595Y-17382690D01*
X10455119Y-17401738D01*
X10455119Y-17458881D01*
X10445595Y-17477929D01*
X10436071Y-17487452D01*
X10417024Y-17496976D01*
X10388452Y-17496976D01*
X10569405Y-17496976D02*
X10550357Y-17487452D01*
X10540833Y-17468405D01*
X10540833Y-17296976D01*
X10721786Y-17487452D02*
X10702738Y-17496976D01*
X10664643Y-17496976D01*
X10645595Y-17487452D01*
X10636071Y-17468405D01*
X10636071Y-17392214D01*
X10645595Y-17373167D01*
X10664643Y-17363643D01*
X10702738Y-17363643D01*
X10721786Y-17373167D01*
X10731310Y-17392214D01*
X10731310Y-17411262D01*
X10636071Y-17430310D01*
X10807500Y-17487452D02*
X10826548Y-17496976D01*
X10864643Y-17496976D01*
X10883690Y-17487452D01*
X10893214Y-17468405D01*
X10893214Y-17458881D01*
X10883690Y-17439833D01*
X10864643Y-17430310D01*
X10836071Y-17430310D01*
X10817024Y-17420786D01*
X10807500Y-17401738D01*
X10807500Y-17392214D01*
X10817024Y-17373167D01*
X10836071Y-17363643D01*
X10864643Y-17363643D01*
X10883690Y-17373167D01*
X10959881Y-17573167D02*
X10969405Y-17563643D01*
X10988452Y-17535071D01*
X10997976Y-17516024D01*
X11007500Y-17487452D01*
X11017024Y-17439833D01*
X11017024Y-17401738D01*
X11007500Y-17354119D01*
X10997976Y-17325548D01*
X10988452Y-17306500D01*
X10969405Y-17277929D01*
X10959881Y-17268405D01*
D14*
X5957500Y-17630500D02*
X5957500Y-17710500D01*
X5917500Y-17670500D02*
X5997500Y-17670500D01*
D11*
X6293214Y-17560976D02*
X6312262Y-17560976D01*
X6331309Y-17570500D01*
X6340833Y-17580024D01*
X6350357Y-17599071D01*
X6359881Y-17637167D01*
X6359881Y-17684786D01*
X6350357Y-17722881D01*
X6340833Y-17741929D01*
X6331309Y-17751452D01*
X6312262Y-17760976D01*
X6293214Y-17760976D01*
X6274167Y-17751452D01*
X6264643Y-17741929D01*
X6255119Y-17722881D01*
X6245595Y-17684786D01*
X6245595Y-17637167D01*
X6255119Y-17599071D01*
X6264643Y-17580024D01*
X6274167Y-17570500D01*
X6293214Y-17560976D01*
X6445595Y-17741929D02*
X6455119Y-17751452D01*
X6445595Y-17760976D01*
X6436071Y-17751452D01*
X6445595Y-17741929D01*
X6445595Y-17760976D01*
X6569405Y-17646690D02*
X6550357Y-17637167D01*
X6540833Y-17627643D01*
X6531309Y-17608595D01*
X6531309Y-17599071D01*
X6540833Y-17580024D01*
X6550357Y-17570500D01*
X6569405Y-17560976D01*
X6607500Y-17560976D01*
X6626548Y-17570500D01*
X6636071Y-17580024D01*
X6645595Y-17599071D01*
X6645595Y-17608595D01*
X6636071Y-17627643D01*
X6626548Y-17637167D01*
X6607500Y-17646690D01*
X6569405Y-17646690D01*
X6550357Y-17656214D01*
X6540833Y-17665738D01*
X6531309Y-17684786D01*
X6531309Y-17722881D01*
X6540833Y-17741929D01*
X6550357Y-17751452D01*
X6569405Y-17760976D01*
X6607500Y-17760976D01*
X6626548Y-17751452D01*
X6636071Y-17741929D01*
X6645595Y-17722881D01*
X6645595Y-17684786D01*
X6636071Y-17665738D01*
X6626548Y-17656214D01*
X6607500Y-17646690D01*
X6769405Y-17560976D02*
X6788452Y-17560976D01*
X6807500Y-17570500D01*
X6817024Y-17580024D01*
X6826548Y-17599071D01*
X6836071Y-17637167D01*
X6836071Y-17684786D01*
X6826548Y-17722881D01*
X6817024Y-17741929D01*
X6807500Y-17751452D01*
X6788452Y-17760976D01*
X6769405Y-17760976D01*
X6750357Y-17751452D01*
X6740833Y-17741929D01*
X6731309Y-17722881D01*
X6721786Y-17684786D01*
X6721786Y-17637167D01*
X6731309Y-17599071D01*
X6740833Y-17580024D01*
X6750357Y-17570500D01*
X6769405Y-17560976D01*
X6959881Y-17560976D02*
X6978928Y-17560976D01*
X6997976Y-17570500D01*
X7007500Y-17580024D01*
X7017024Y-17599071D01*
X7026548Y-17637167D01*
X7026548Y-17684786D01*
X7017024Y-17722881D01*
X7007500Y-17741929D01*
X6997976Y-17751452D01*
X6978928Y-17760976D01*
X6959881Y-17760976D01*
X6940833Y-17751452D01*
X6931309Y-17741929D01*
X6921786Y-17722881D01*
X6912262Y-17684786D01*
X6912262Y-17637167D01*
X6921786Y-17599071D01*
X6931309Y-17580024D01*
X6940833Y-17570500D01*
X6959881Y-17560976D01*
X7112262Y-17760976D02*
X7112262Y-17627643D01*
X7112262Y-17646690D02*
X7121786Y-17637167D01*
X7140833Y-17627643D01*
X7169405Y-17627643D01*
X7188452Y-17637167D01*
X7197976Y-17656214D01*
X7197976Y-17760976D01*
X7197976Y-17656214D02*
X7207500Y-17637167D01*
X7226548Y-17627643D01*
X7255119Y-17627643D01*
X7274167Y-17637167D01*
X7283690Y-17656214D01*
X7283690Y-17760976D01*
X7378928Y-17760976D02*
X7378928Y-17627643D01*
X7378928Y-17646690D02*
X7388452Y-17637167D01*
X7407500Y-17627643D01*
X7436071Y-17627643D01*
X7455119Y-17637167D01*
X7464643Y-17656214D01*
X7464643Y-17760976D01*
X7464643Y-17656214D02*
X7474167Y-17637167D01*
X7493214Y-17627643D01*
X7521786Y-17627643D01*
X7540833Y-17637167D01*
X7550357Y-17656214D01*
X7550357Y-17760976D01*
X7940833Y-17551452D02*
X7769405Y-17808595D01*
X8197976Y-17560976D02*
X8217024Y-17560976D01*
X8236071Y-17570500D01*
X8245595Y-17580024D01*
X8255119Y-17599071D01*
X8264643Y-17637167D01*
X8264643Y-17684786D01*
X8255119Y-17722881D01*
X8245595Y-17741929D01*
X8236071Y-17751452D01*
X8217024Y-17760976D01*
X8197976Y-17760976D01*
X8178928Y-17751452D01*
X8169405Y-17741929D01*
X8159881Y-17722881D01*
X8150357Y-17684786D01*
X8150357Y-17637167D01*
X8159881Y-17599071D01*
X8169405Y-17580024D01*
X8178928Y-17570500D01*
X8197976Y-17560976D01*
X8350357Y-17741929D02*
X8359881Y-17751452D01*
X8350357Y-17760976D01*
X8340833Y-17751452D01*
X8350357Y-17741929D01*
X8350357Y-17760976D01*
X8483690Y-17560976D02*
X8502738Y-17560976D01*
X8521786Y-17570500D01*
X8531310Y-17580024D01*
X8540833Y-17599071D01*
X8550357Y-17637167D01*
X8550357Y-17684786D01*
X8540833Y-17722881D01*
X8531310Y-17741929D01*
X8521786Y-17751452D01*
X8502738Y-17760976D01*
X8483690Y-17760976D01*
X8464643Y-17751452D01*
X8455119Y-17741929D01*
X8445595Y-17722881D01*
X8436071Y-17684786D01*
X8436071Y-17637167D01*
X8445595Y-17599071D01*
X8455119Y-17580024D01*
X8464643Y-17570500D01*
X8483690Y-17560976D01*
X8617024Y-17560976D02*
X8740833Y-17560976D01*
X8674167Y-17637167D01*
X8702738Y-17637167D01*
X8721786Y-17646690D01*
X8731310Y-17656214D01*
X8740833Y-17675262D01*
X8740833Y-17722881D01*
X8731310Y-17741929D01*
X8721786Y-17751452D01*
X8702738Y-17760976D01*
X8645595Y-17760976D01*
X8626548Y-17751452D01*
X8617024Y-17741929D01*
X8931310Y-17760976D02*
X8817024Y-17760976D01*
X8874167Y-17760976D02*
X8874167Y-17560976D01*
X8855119Y-17589548D01*
X8836071Y-17608595D01*
X8817024Y-17618119D01*
X9112262Y-17560976D02*
X9017024Y-17560976D01*
X9007500Y-17656214D01*
X9017024Y-17646690D01*
X9036071Y-17637167D01*
X9083690Y-17637167D01*
X9102738Y-17646690D01*
X9112262Y-17656214D01*
X9121786Y-17675262D01*
X9121786Y-17722881D01*
X9112262Y-17741929D01*
X9102738Y-17751452D01*
X9083690Y-17760976D01*
X9036071Y-17760976D01*
X9017024Y-17751452D01*
X9007500Y-17741929D01*
X9197976Y-17560976D02*
X9197976Y-17599071D01*
X9274167Y-17560976D02*
X9274167Y-17599071D01*
X9569405Y-17837167D02*
X9559881Y-17827643D01*
X9540833Y-17799071D01*
X9531310Y-17780024D01*
X9521786Y-17751452D01*
X9512262Y-17703833D01*
X9512262Y-17665738D01*
X9521786Y-17618119D01*
X9531310Y-17589548D01*
X9540833Y-17570500D01*
X9559881Y-17541929D01*
X9569405Y-17532405D01*
X9750357Y-17760976D02*
X9636071Y-17760976D01*
X9693214Y-17760976D02*
X9693214Y-17560976D01*
X9674167Y-17589548D01*
X9655119Y-17608595D01*
X9636071Y-17618119D01*
X9940833Y-17760976D02*
X9826548Y-17760976D01*
X9883690Y-17760976D02*
X9883690Y-17560976D01*
X9864643Y-17589548D01*
X9845595Y-17608595D01*
X9826548Y-17618119D01*
X10112262Y-17627643D02*
X10112262Y-17760976D01*
X10064643Y-17551452D02*
X10017024Y-17694310D01*
X10140833Y-17694310D01*
X10369405Y-17760976D02*
X10369405Y-17560976D01*
X10455119Y-17760976D02*
X10455119Y-17656214D01*
X10445595Y-17637167D01*
X10426548Y-17627643D01*
X10397976Y-17627643D01*
X10378929Y-17637167D01*
X10369405Y-17646690D01*
X10578929Y-17760976D02*
X10559881Y-17751452D01*
X10550357Y-17741929D01*
X10540833Y-17722881D01*
X10540833Y-17665738D01*
X10550357Y-17646690D01*
X10559881Y-17637167D01*
X10578929Y-17627643D01*
X10607500Y-17627643D01*
X10626548Y-17637167D01*
X10636071Y-17646690D01*
X10645595Y-17665738D01*
X10645595Y-17722881D01*
X10636071Y-17741929D01*
X10626548Y-17751452D01*
X10607500Y-17760976D01*
X10578929Y-17760976D01*
X10759881Y-17760976D02*
X10740833Y-17751452D01*
X10731310Y-17732405D01*
X10731310Y-17560976D01*
X10912262Y-17751452D02*
X10893214Y-17760976D01*
X10855119Y-17760976D01*
X10836071Y-17751452D01*
X10826548Y-17732405D01*
X10826548Y-17656214D01*
X10836071Y-17637167D01*
X10855119Y-17627643D01*
X10893214Y-17627643D01*
X10912262Y-17637167D01*
X10921786Y-17656214D01*
X10921786Y-17675262D01*
X10826548Y-17694310D01*
X10997976Y-17751452D02*
X11017024Y-17760976D01*
X11055119Y-17760976D01*
X11074167Y-17751452D01*
X11083690Y-17732405D01*
X11083690Y-17722881D01*
X11074167Y-17703833D01*
X11055119Y-17694310D01*
X11026548Y-17694310D01*
X11007500Y-17684786D01*
X10997976Y-17665738D01*
X10997976Y-17656214D01*
X11007500Y-17637167D01*
X11026548Y-17627643D01*
X11055119Y-17627643D01*
X11074167Y-17637167D01*
X11150357Y-17837167D02*
X11159881Y-17827643D01*
X11178929Y-17799071D01*
X11188452Y-17780024D01*
X11197976Y-17751452D01*
X11207500Y-17703833D01*
X11207500Y-17665738D01*
X11197976Y-17618119D01*
X11188452Y-17589548D01*
X11178929Y-17570500D01*
X11159881Y-17541929D01*
X11150357Y-17532405D01*
D15*
X5982856Y-17969856D02*
X5982856Y-17899144D01*
X5912144Y-17899144D01*
X5912144Y-17969856D01*
X5982856Y-17969856D01*
D11*
X6359881Y-18024976D02*
X6245595Y-18024976D01*
X6302738Y-18024976D02*
X6302738Y-17824976D01*
X6283690Y-17853548D01*
X6264643Y-17872595D01*
X6245595Y-17882119D01*
X6445595Y-18005929D02*
X6455119Y-18015452D01*
X6445595Y-18024976D01*
X6436071Y-18015452D01*
X6445595Y-18005929D01*
X6445595Y-18024976D01*
X6578928Y-17824976D02*
X6597976Y-17824976D01*
X6617024Y-17834500D01*
X6626548Y-17844024D01*
X6636071Y-17863071D01*
X6645595Y-17901167D01*
X6645595Y-17948786D01*
X6636071Y-17986881D01*
X6626548Y-18005929D01*
X6617024Y-18015452D01*
X6597976Y-18024976D01*
X6578928Y-18024976D01*
X6559881Y-18015452D01*
X6550357Y-18005929D01*
X6540833Y-17986881D01*
X6531309Y-17948786D01*
X6531309Y-17901167D01*
X6540833Y-17863071D01*
X6550357Y-17844024D01*
X6559881Y-17834500D01*
X6578928Y-17824976D01*
X6769405Y-17824976D02*
X6788452Y-17824976D01*
X6807500Y-17834500D01*
X6817024Y-17844024D01*
X6826548Y-17863071D01*
X6836071Y-17901167D01*
X6836071Y-17948786D01*
X6826548Y-17986881D01*
X6817024Y-18005929D01*
X6807500Y-18015452D01*
X6788452Y-18024976D01*
X6769405Y-18024976D01*
X6750357Y-18015452D01*
X6740833Y-18005929D01*
X6731309Y-17986881D01*
X6721786Y-17948786D01*
X6721786Y-17901167D01*
X6731309Y-17863071D01*
X6740833Y-17844024D01*
X6750357Y-17834500D01*
X6769405Y-17824976D01*
X6959881Y-17824976D02*
X6978928Y-17824976D01*
X6997976Y-17834500D01*
X7007500Y-17844024D01*
X7017024Y-17863071D01*
X7026548Y-17901167D01*
X7026548Y-17948786D01*
X7017024Y-17986881D01*
X7007500Y-18005929D01*
X6997976Y-18015452D01*
X6978928Y-18024976D01*
X6959881Y-18024976D01*
X6940833Y-18015452D01*
X6931309Y-18005929D01*
X6921786Y-17986881D01*
X6912262Y-17948786D01*
X6912262Y-17901167D01*
X6921786Y-17863071D01*
X6931309Y-17844024D01*
X6940833Y-17834500D01*
X6959881Y-17824976D01*
X7112262Y-18024976D02*
X7112262Y-17891643D01*
X7112262Y-17910690D02*
X7121786Y-17901167D01*
X7140833Y-17891643D01*
X7169405Y-17891643D01*
X7188452Y-17901167D01*
X7197976Y-17920214D01*
X7197976Y-18024976D01*
X7197976Y-17920214D02*
X7207500Y-17901167D01*
X7226548Y-17891643D01*
X7255119Y-17891643D01*
X7274167Y-17901167D01*
X7283690Y-17920214D01*
X7283690Y-18024976D01*
X7378928Y-18024976D02*
X7378928Y-17891643D01*
X7378928Y-17910690D02*
X7388452Y-17901167D01*
X7407500Y-17891643D01*
X7436071Y-17891643D01*
X7455119Y-17901167D01*
X7464643Y-17920214D01*
X7464643Y-18024976D01*
X7464643Y-17920214D02*
X7474167Y-17901167D01*
X7493214Y-17891643D01*
X7521786Y-17891643D01*
X7540833Y-17901167D01*
X7550357Y-17920214D01*
X7550357Y-18024976D01*
X7940833Y-17815452D02*
X7769405Y-18072595D01*
X8197976Y-17824976D02*
X8217024Y-17824976D01*
X8236071Y-17834500D01*
X8245595Y-17844024D01*
X8255119Y-17863071D01*
X8264643Y-17901167D01*
X8264643Y-17948786D01*
X8255119Y-17986881D01*
X8245595Y-18005929D01*
X8236071Y-18015452D01*
X8217024Y-18024976D01*
X8197976Y-18024976D01*
X8178928Y-18015452D01*
X8169405Y-18005929D01*
X8159881Y-17986881D01*
X8150357Y-17948786D01*
X8150357Y-17901167D01*
X8159881Y-17863071D01*
X8169405Y-17844024D01*
X8178928Y-17834500D01*
X8197976Y-17824976D01*
X8350357Y-18005929D02*
X8359881Y-18015452D01*
X8350357Y-18024976D01*
X8340833Y-18015452D01*
X8350357Y-18005929D01*
X8350357Y-18024976D01*
X8483690Y-17824976D02*
X8502738Y-17824976D01*
X8521786Y-17834500D01*
X8531310Y-17844024D01*
X8540833Y-17863071D01*
X8550357Y-17901167D01*
X8550357Y-17948786D01*
X8540833Y-17986881D01*
X8531310Y-18005929D01*
X8521786Y-18015452D01*
X8502738Y-18024976D01*
X8483690Y-18024976D01*
X8464643Y-18015452D01*
X8455119Y-18005929D01*
X8445595Y-17986881D01*
X8436071Y-17948786D01*
X8436071Y-17901167D01*
X8445595Y-17863071D01*
X8455119Y-17844024D01*
X8464643Y-17834500D01*
X8483690Y-17824976D01*
X8617024Y-17824976D02*
X8740833Y-17824976D01*
X8674167Y-17901167D01*
X8702738Y-17901167D01*
X8721786Y-17910690D01*
X8731310Y-17920214D01*
X8740833Y-17939262D01*
X8740833Y-17986881D01*
X8731310Y-18005929D01*
X8721786Y-18015452D01*
X8702738Y-18024976D01*
X8645595Y-18024976D01*
X8626548Y-18015452D01*
X8617024Y-18005929D01*
X8836071Y-18024976D02*
X8874167Y-18024976D01*
X8893214Y-18015452D01*
X8902738Y-18005929D01*
X8921786Y-17977357D01*
X8931310Y-17939262D01*
X8931310Y-17863071D01*
X8921786Y-17844024D01*
X8912262Y-17834500D01*
X8893214Y-17824976D01*
X8855119Y-17824976D01*
X8836071Y-17834500D01*
X8826548Y-17844024D01*
X8817024Y-17863071D01*
X8817024Y-17910690D01*
X8826548Y-17929738D01*
X8836071Y-17939262D01*
X8855119Y-17948786D01*
X8893214Y-17948786D01*
X8912262Y-17939262D01*
X8921786Y-17929738D01*
X8931310Y-17910690D01*
X9102738Y-17891643D02*
X9102738Y-18024976D01*
X9055119Y-17815452D02*
X9007500Y-17958310D01*
X9131310Y-17958310D01*
X9197976Y-17824976D02*
X9197976Y-17863071D01*
X9274167Y-17824976D02*
X9274167Y-17863071D01*
X9569405Y-18101167D02*
X9559881Y-18091643D01*
X9540833Y-18063071D01*
X9531310Y-18044024D01*
X9521786Y-18015452D01*
X9512262Y-17967833D01*
X9512262Y-17929738D01*
X9521786Y-17882119D01*
X9531310Y-17853548D01*
X9540833Y-17834500D01*
X9559881Y-17805929D01*
X9569405Y-17796405D01*
X9750357Y-18024976D02*
X9636071Y-18024976D01*
X9693214Y-18024976D02*
X9693214Y-17824976D01*
X9674167Y-17853548D01*
X9655119Y-17872595D01*
X9636071Y-17882119D01*
X9817024Y-17824976D02*
X9950357Y-17824976D01*
X9864643Y-18024976D01*
X10017024Y-17844024D02*
X10026548Y-17834500D01*
X10045595Y-17824976D01*
X10093214Y-17824976D01*
X10112262Y-17834500D01*
X10121786Y-17844024D01*
X10131310Y-17863071D01*
X10131310Y-17882119D01*
X10121786Y-17910690D01*
X10007500Y-18024976D01*
X10131310Y-18024976D01*
X10369405Y-18024976D02*
X10369405Y-17824976D01*
X10455119Y-18024976D02*
X10455119Y-17920214D01*
X10445595Y-17901167D01*
X10426548Y-17891643D01*
X10397976Y-17891643D01*
X10378929Y-17901167D01*
X10369405Y-17910690D01*
X10578929Y-18024976D02*
X10559881Y-18015452D01*
X10550357Y-18005929D01*
X10540833Y-17986881D01*
X10540833Y-17929738D01*
X10550357Y-17910690D01*
X10559881Y-17901167D01*
X10578929Y-17891643D01*
X10607500Y-17891643D01*
X10626548Y-17901167D01*
X10636071Y-17910690D01*
X10645595Y-17929738D01*
X10645595Y-17986881D01*
X10636071Y-18005929D01*
X10626548Y-18015452D01*
X10607500Y-18024976D01*
X10578929Y-18024976D01*
X10759881Y-18024976D02*
X10740833Y-18015452D01*
X10731310Y-17996405D01*
X10731310Y-17824976D01*
X10912262Y-18015452D02*
X10893214Y-18024976D01*
X10855119Y-18024976D01*
X10836071Y-18015452D01*
X10826548Y-17996405D01*
X10826548Y-17920214D01*
X10836071Y-17901167D01*
X10855119Y-17891643D01*
X10893214Y-17891643D01*
X10912262Y-17901167D01*
X10921786Y-17920214D01*
X10921786Y-17939262D01*
X10826548Y-17958310D01*
X10997976Y-18015452D02*
X11017024Y-18024976D01*
X11055119Y-18024976D01*
X11074167Y-18015452D01*
X11083690Y-17996405D01*
X11083690Y-17986881D01*
X11074167Y-17967833D01*
X11055119Y-17958310D01*
X11026548Y-17958310D01*
X11007500Y-17948786D01*
X10997976Y-17929738D01*
X10997976Y-17920214D01*
X11007500Y-17901167D01*
X11026548Y-17891643D01*
X11055119Y-17891643D01*
X11074167Y-17901167D01*
X11150357Y-18101167D02*
X11159881Y-18091643D01*
X11178929Y-18063071D01*
X11188452Y-18044024D01*
X11197976Y-18015452D01*
X11207500Y-17967833D01*
X11207500Y-17929738D01*
X11197976Y-17882119D01*
X11188452Y-17853548D01*
X11178929Y-17834500D01*
X11159881Y-17805929D01*
X11150357Y-17796405D01*
X5897500Y-18298500D02*
X5997500Y-18198500D01*
X5897500Y-18098500D01*
X5797500Y-18198500D01*
X5897500Y-18298500D01*
X6236071Y-18088976D02*
X6359881Y-18088976D01*
X6293214Y-18165167D01*
X6321786Y-18165167D01*
X6340833Y-18174690D01*
X6350357Y-18184214D01*
X6359881Y-18203262D01*
X6359881Y-18250881D01*
X6350357Y-18269929D01*
X6340833Y-18279452D01*
X6321786Y-18288976D01*
X6264643Y-18288976D01*
X6245595Y-18279452D01*
X6236071Y-18269929D01*
X6445595Y-18269929D02*
X6455119Y-18279452D01*
X6445595Y-18288976D01*
X6436071Y-18279452D01*
X6445595Y-18269929D01*
X6445595Y-18288976D01*
X6531309Y-18108024D02*
X6540833Y-18098500D01*
X6559881Y-18088976D01*
X6607500Y-18088976D01*
X6626548Y-18098500D01*
X6636071Y-18108024D01*
X6645595Y-18127071D01*
X6645595Y-18146119D01*
X6636071Y-18174690D01*
X6521786Y-18288976D01*
X6645595Y-18288976D01*
X6769405Y-18088976D02*
X6788452Y-18088976D01*
X6807500Y-18098500D01*
X6817024Y-18108024D01*
X6826548Y-18127071D01*
X6836071Y-18165167D01*
X6836071Y-18212786D01*
X6826548Y-18250881D01*
X6817024Y-18269929D01*
X6807500Y-18279452D01*
X6788452Y-18288976D01*
X6769405Y-18288976D01*
X6750357Y-18279452D01*
X6740833Y-18269929D01*
X6731309Y-18250881D01*
X6721786Y-18212786D01*
X6721786Y-18165167D01*
X6731309Y-18127071D01*
X6740833Y-18108024D01*
X6750357Y-18098500D01*
X6769405Y-18088976D01*
X6959881Y-18088976D02*
X6978928Y-18088976D01*
X6997976Y-18098500D01*
X7007500Y-18108024D01*
X7017024Y-18127071D01*
X7026548Y-18165167D01*
X7026548Y-18212786D01*
X7017024Y-18250881D01*
X7007500Y-18269929D01*
X6997976Y-18279452D01*
X6978928Y-18288976D01*
X6959881Y-18288976D01*
X6940833Y-18279452D01*
X6931309Y-18269929D01*
X6921786Y-18250881D01*
X6912262Y-18212786D01*
X6912262Y-18165167D01*
X6921786Y-18127071D01*
X6931309Y-18108024D01*
X6940833Y-18098500D01*
X6959881Y-18088976D01*
X7112262Y-18288976D02*
X7112262Y-18155643D01*
X7112262Y-18174690D02*
X7121786Y-18165167D01*
X7140833Y-18155643D01*
X7169405Y-18155643D01*
X7188452Y-18165167D01*
X7197976Y-18184214D01*
X7197976Y-18288976D01*
X7197976Y-18184214D02*
X7207500Y-18165167D01*
X7226548Y-18155643D01*
X7255119Y-18155643D01*
X7274167Y-18165167D01*
X7283690Y-18184214D01*
X7283690Y-18288976D01*
X7378928Y-18288976D02*
X7378928Y-18155643D01*
X7378928Y-18174690D02*
X7388452Y-18165167D01*
X7407500Y-18155643D01*
X7436071Y-18155643D01*
X7455119Y-18165167D01*
X7464643Y-18184214D01*
X7464643Y-18288976D01*
X7464643Y-18184214D02*
X7474167Y-18165167D01*
X7493214Y-18155643D01*
X7521786Y-18155643D01*
X7540833Y-18165167D01*
X7550357Y-18184214D01*
X7550357Y-18288976D01*
X7940833Y-18079452D02*
X7769405Y-18336595D01*
X8197976Y-18088976D02*
X8217024Y-18088976D01*
X8236071Y-18098500D01*
X8245595Y-18108024D01*
X8255119Y-18127071D01*
X8264643Y-18165167D01*
X8264643Y-18212786D01*
X8255119Y-18250881D01*
X8245595Y-18269929D01*
X8236071Y-18279452D01*
X8217024Y-18288976D01*
X8197976Y-18288976D01*
X8178928Y-18279452D01*
X8169405Y-18269929D01*
X8159881Y-18250881D01*
X8150357Y-18212786D01*
X8150357Y-18165167D01*
X8159881Y-18127071D01*
X8169405Y-18108024D01*
X8178928Y-18098500D01*
X8197976Y-18088976D01*
X8350357Y-18269929D02*
X8359881Y-18279452D01*
X8350357Y-18288976D01*
X8340833Y-18279452D01*
X8350357Y-18269929D01*
X8350357Y-18288976D01*
X8550357Y-18288976D02*
X8436071Y-18288976D01*
X8493214Y-18288976D02*
X8493214Y-18088976D01*
X8474167Y-18117548D01*
X8455119Y-18136595D01*
X8436071Y-18146119D01*
X8626548Y-18108024D02*
X8636071Y-18098500D01*
X8655119Y-18088976D01*
X8702738Y-18088976D01*
X8721786Y-18098500D01*
X8731310Y-18108024D01*
X8740833Y-18127071D01*
X8740833Y-18146119D01*
X8731310Y-18174690D01*
X8617024Y-18288976D01*
X8740833Y-18288976D01*
X8912262Y-18088976D02*
X8874167Y-18088976D01*
X8855119Y-18098500D01*
X8845595Y-18108024D01*
X8826548Y-18136595D01*
X8817024Y-18174690D01*
X8817024Y-18250881D01*
X8826548Y-18269929D01*
X8836071Y-18279452D01*
X8855119Y-18288976D01*
X8893214Y-18288976D01*
X8912262Y-18279452D01*
X8921786Y-18269929D01*
X8931310Y-18250881D01*
X8931310Y-18203262D01*
X8921786Y-18184214D01*
X8912262Y-18174690D01*
X8893214Y-18165167D01*
X8855119Y-18165167D01*
X8836071Y-18174690D01*
X8826548Y-18184214D01*
X8817024Y-18203262D01*
X9055119Y-18088976D02*
X9074167Y-18088976D01*
X9093214Y-18098500D01*
X9102738Y-18108024D01*
X9112262Y-18127071D01*
X9121786Y-18165167D01*
X9121786Y-18212786D01*
X9112262Y-18250881D01*
X9102738Y-18269929D01*
X9093214Y-18279452D01*
X9074167Y-18288976D01*
X9055119Y-18288976D01*
X9036071Y-18279452D01*
X9026548Y-18269929D01*
X9017024Y-18250881D01*
X9007500Y-18212786D01*
X9007500Y-18165167D01*
X9017024Y-18127071D01*
X9026548Y-18108024D01*
X9036071Y-18098500D01*
X9055119Y-18088976D01*
X9197976Y-18088976D02*
X9197976Y-18127071D01*
X9274167Y-18088976D02*
X9274167Y-18127071D01*
X9569405Y-18365167D02*
X9559881Y-18355643D01*
X9540833Y-18327071D01*
X9531310Y-18308024D01*
X9521786Y-18279452D01*
X9512262Y-18231833D01*
X9512262Y-18193738D01*
X9521786Y-18146119D01*
X9531310Y-18117548D01*
X9540833Y-18098500D01*
X9559881Y-18069929D01*
X9569405Y-18060405D01*
X9731310Y-18155643D02*
X9731310Y-18288976D01*
X9683690Y-18079452D02*
X9636071Y-18222310D01*
X9759881Y-18222310D01*
X9988452Y-18288976D02*
X9988452Y-18088976D01*
X10074167Y-18288976D02*
X10074167Y-18184214D01*
X10064643Y-18165167D01*
X10045595Y-18155643D01*
X10017024Y-18155643D01*
X9997976Y-18165167D01*
X9988452Y-18174690D01*
X10197976Y-18288976D02*
X10178929Y-18279452D01*
X10169405Y-18269929D01*
X10159881Y-18250881D01*
X10159881Y-18193738D01*
X10169405Y-18174690D01*
X10178929Y-18165167D01*
X10197976Y-18155643D01*
X10226548Y-18155643D01*
X10245595Y-18165167D01*
X10255119Y-18174690D01*
X10264643Y-18193738D01*
X10264643Y-18250881D01*
X10255119Y-18269929D01*
X10245595Y-18279452D01*
X10226548Y-18288976D01*
X10197976Y-18288976D01*
X10378929Y-18288976D02*
X10359881Y-18279452D01*
X10350357Y-18260405D01*
X10350357Y-18088976D01*
X10531310Y-18279452D02*
X10512262Y-18288976D01*
X10474167Y-18288976D01*
X10455119Y-18279452D01*
X10445595Y-18260405D01*
X10445595Y-18184214D01*
X10455119Y-18165167D01*
X10474167Y-18155643D01*
X10512262Y-18155643D01*
X10531310Y-18165167D01*
X10540833Y-18184214D01*
X10540833Y-18203262D01*
X10445595Y-18222310D01*
X10617024Y-18279452D02*
X10636071Y-18288976D01*
X10674167Y-18288976D01*
X10693214Y-18279452D01*
X10702738Y-18260405D01*
X10702738Y-18250881D01*
X10693214Y-18231833D01*
X10674167Y-18222310D01*
X10645595Y-18222310D01*
X10626548Y-18212786D01*
X10617024Y-18193738D01*
X10617024Y-18184214D01*
X10626548Y-18165167D01*
X10645595Y-18155643D01*
X10674167Y-18155643D01*
X10693214Y-18165167D01*
X10769405Y-18365167D02*
X10778929Y-18355643D01*
X10797976Y-18327071D01*
X10807500Y-18308024D01*
X10817024Y-18279452D01*
X10826548Y-18231833D01*
X10826548Y-18193738D01*
X10817024Y-18146119D01*
X10807500Y-18117548D01*
X10797976Y-18098500D01*
X10778929Y-18069929D01*
X10769405Y-18060405D01*
M02*
