G04 #@! TF.GenerationSoftware,KiCad,Pcbnew,(6.0.2)*
G04 #@! TF.CreationDate,2023-01-22T12:33:39-05:00*
G04 #@! TF.ProjectId,Interface-PCB,496e7465-7266-4616-9365-2d5043422e6b,1.0*
G04 #@! TF.SameCoordinates,Original*
G04 #@! TF.FileFunction,Legend,Bot*
G04 #@! TF.FilePolarity,Positive*
%FSLAX46Y46*%
G04 Gerber Fmt 4.6, Leading zero omitted, Abs format (unit mm)*
G04 Created by KiCad (PCBNEW (6.0.2)) date 2023-01-22 12:33:39*
%MOMM*%
%LPD*%
G01*
G04 APERTURE LIST*
G04 Aperture macros list*
%AMRoundRect*
0 Rectangle with rounded corners*
0 $1 Rounding radius*
0 $2 $3 $4 $5 $6 $7 $8 $9 X,Y pos of 4 corners*
0 Add a 4 corners polygon primitive as box body*
4,1,4,$2,$3,$4,$5,$6,$7,$8,$9,$2,$3,0*
0 Add four circle primitives for the rounded corners*
1,1,$1+$1,$2,$3*
1,1,$1+$1,$4,$5*
1,1,$1+$1,$6,$7*
1,1,$1+$1,$8,$9*
0 Add four rect primitives between the rounded corners*
20,1,$1+$1,$2,$3,$4,$5,0*
20,1,$1+$1,$4,$5,$6,$7,0*
20,1,$1+$1,$6,$7,$8,$9,0*
20,1,$1+$1,$8,$9,$2,$3,0*%
G04 Aperture macros list end*
%ADD10C,0.200000*%
%ADD11RoundRect,0.050000X0.800000X0.800000X-0.800000X0.800000X-0.800000X-0.800000X0.800000X-0.800000X0*%
%ADD12O,1.700000X1.700000*%
%ADD13RoundRect,0.050000X-1.000000X-1.000000X1.000000X-1.000000X1.000000X1.000000X-1.000000X1.000000X0*%
%ADD14C,2.100000*%
%ADD15C,1.700000*%
%ADD16RoundRect,0.050000X-0.850000X-0.850000X0.850000X-0.850000X0.850000X0.850000X-0.850000X0.850000X0*%
%ADD17O,1.800000X1.800000*%
%ADD18C,1.800000*%
%ADD19C,6.500000*%
%ADD20RoundRect,0.050000X0.850000X-0.850000X0.850000X0.850000X-0.850000X0.850000X-0.850000X-0.850000X0*%
%ADD21RoundRect,0.050000X0.850000X0.850000X-0.850000X0.850000X-0.850000X-0.850000X0.850000X-0.850000X0*%
%ADD22RoundRect,0.050000X0.800000X-0.800000X0.800000X0.800000X-0.800000X0.800000X-0.800000X-0.800000X0*%
G04 APERTURE END LIST*
D10*
X140464285Y-124678571D02*
X140464285Y-123178571D01*
X138892857Y-124535714D02*
X138964285Y-124607142D01*
X139178571Y-124678571D01*
X139321428Y-124678571D01*
X139535714Y-124607142D01*
X139678571Y-124464285D01*
X139750000Y-124321428D01*
X139821428Y-124035714D01*
X139821428Y-123821428D01*
X139750000Y-123535714D01*
X139678571Y-123392857D01*
X139535714Y-123250000D01*
X139321428Y-123178571D01*
X139178571Y-123178571D01*
X138964285Y-123250000D01*
X138892857Y-123321428D01*
X137464285Y-124678571D02*
X138321428Y-124678571D01*
X137892857Y-124678571D02*
X137892857Y-123178571D01*
X138035714Y-123392857D01*
X138178571Y-123535714D01*
X138321428Y-123607142D01*
X146142857Y-59178571D02*
X146142857Y-60392857D01*
X146071428Y-60535714D01*
X146000000Y-60607142D01*
X145857142Y-60678571D01*
X145571428Y-60678571D01*
X145428571Y-60607142D01*
X145357142Y-60535714D01*
X145285714Y-60392857D01*
X145285714Y-59178571D01*
X144714285Y-59178571D02*
X143785714Y-59178571D01*
X144285714Y-59750000D01*
X144071428Y-59750000D01*
X143928571Y-59821428D01*
X143857142Y-59892857D01*
X143785714Y-60035714D01*
X143785714Y-60392857D01*
X143857142Y-60535714D01*
X143928571Y-60607142D01*
X144071428Y-60678571D01*
X144500000Y-60678571D01*
X144642857Y-60607142D01*
X144714285Y-60535714D01*
X117464285Y-51678571D02*
X117464285Y-50178571D01*
X115892857Y-51535714D02*
X115964285Y-51607142D01*
X116178571Y-51678571D01*
X116321428Y-51678571D01*
X116535714Y-51607142D01*
X116678571Y-51464285D01*
X116750000Y-51321428D01*
X116821428Y-51035714D01*
X116821428Y-50821428D01*
X116750000Y-50535714D01*
X116678571Y-50392857D01*
X116535714Y-50250000D01*
X116321428Y-50178571D01*
X116178571Y-50178571D01*
X115964285Y-50250000D01*
X115892857Y-50321428D01*
X115392857Y-50178571D02*
X114464285Y-50178571D01*
X114964285Y-50750000D01*
X114750000Y-50750000D01*
X114607142Y-50821428D01*
X114535714Y-50892857D01*
X114464285Y-51035714D01*
X114464285Y-51392857D01*
X114535714Y-51535714D01*
X114607142Y-51607142D01*
X114750000Y-51678571D01*
X115178571Y-51678571D01*
X115321428Y-51607142D01*
X115392857Y-51535714D01*
X86142857Y-136178571D02*
X86142857Y-137392857D01*
X86071428Y-137535714D01*
X86000000Y-137607142D01*
X85857142Y-137678571D01*
X85571428Y-137678571D01*
X85428571Y-137607142D01*
X85357142Y-137535714D01*
X85285714Y-137392857D01*
X85285714Y-136178571D01*
X84642857Y-136321428D02*
X84571428Y-136250000D01*
X84428571Y-136178571D01*
X84071428Y-136178571D01*
X83928571Y-136250000D01*
X83857142Y-136321428D01*
X83785714Y-136464285D01*
X83785714Y-136607142D01*
X83857142Y-136821428D01*
X84714285Y-137678571D01*
X83785714Y-137678571D01*
X162321428Y-118392857D02*
X162107142Y-118464285D01*
X162035714Y-118535714D01*
X161964285Y-118678571D01*
X161964285Y-118892857D01*
X162035714Y-119035714D01*
X162107142Y-119107142D01*
X162250000Y-119178571D01*
X162821428Y-119178571D01*
X162821428Y-117678571D01*
X162321428Y-117678571D01*
X162178571Y-117750000D01*
X162107142Y-117821428D01*
X162035714Y-117964285D01*
X162035714Y-118107142D01*
X162107142Y-118250000D01*
X162178571Y-118321428D01*
X162321428Y-118392857D01*
X162821428Y-118392857D01*
X161464285Y-117678571D02*
X160464285Y-117678571D01*
X161464285Y-119178571D01*
X160464285Y-119178571D01*
X159107142Y-119178571D02*
X159964285Y-119178571D01*
X159535714Y-119178571D02*
X159535714Y-117678571D01*
X159678571Y-117892857D01*
X159821428Y-118035714D01*
X159964285Y-118107142D01*
X86142857Y-106178571D02*
X86142857Y-107392857D01*
X86071428Y-107535714D01*
X86000000Y-107607142D01*
X85857142Y-107678571D01*
X85571428Y-107678571D01*
X85428571Y-107607142D01*
X85357142Y-107535714D01*
X85285714Y-107392857D01*
X85285714Y-106178571D01*
X83785714Y-107678571D02*
X84642857Y-107678571D01*
X84214285Y-107678571D02*
X84214285Y-106178571D01*
X84357142Y-106392857D01*
X84500000Y-106535714D01*
X84642857Y-106607142D01*
X117464285Y-80678571D02*
X117464285Y-79178571D01*
X115892857Y-80535714D02*
X115964285Y-80607142D01*
X116178571Y-80678571D01*
X116321428Y-80678571D01*
X116535714Y-80607142D01*
X116678571Y-80464285D01*
X116750000Y-80321428D01*
X116821428Y-80035714D01*
X116821428Y-79821428D01*
X116750000Y-79535714D01*
X116678571Y-79392857D01*
X116535714Y-79250000D01*
X116321428Y-79178571D01*
X116178571Y-79178571D01*
X115964285Y-79250000D01*
X115892857Y-79321428D01*
X115321428Y-79321428D02*
X115250000Y-79250000D01*
X115107142Y-79178571D01*
X114750000Y-79178571D01*
X114607142Y-79250000D01*
X114535714Y-79321428D01*
X114464285Y-79464285D01*
X114464285Y-79607142D01*
X114535714Y-79821428D01*
X115392857Y-80678571D01*
X114464285Y-80678571D01*
%LPC*%
D11*
X120000000Y-60960000D03*
D12*
X120000000Y-58420000D03*
X120000000Y-55880000D03*
X120000000Y-53340000D03*
X120000000Y-50800000D03*
X120000000Y-48260000D03*
X120000000Y-45720000D03*
X120000000Y-43180000D03*
X120000000Y-40640000D03*
X112380000Y-40640000D03*
X112380000Y-43180000D03*
X112380000Y-45720000D03*
X112380000Y-48260000D03*
X112380000Y-50800000D03*
X112380000Y-53340000D03*
X112380000Y-55880000D03*
X112380000Y-58420000D03*
X112380000Y-60960000D03*
D13*
X157590000Y-115500000D03*
D14*
X164410000Y-115500000D03*
D15*
X139820000Y-61280000D03*
D12*
X149980000Y-61280000D03*
D15*
X187420000Y-132500000D03*
D12*
X197580000Y-132500000D03*
D15*
X143515000Y-104010000D03*
D12*
X143515000Y-114170000D03*
D16*
X77380000Y-98610000D03*
D17*
X77380000Y-101150000D03*
X77380000Y-103690000D03*
X77380000Y-106230000D03*
X77380000Y-108770000D03*
X77380000Y-111310000D03*
X77380000Y-113850000D03*
X77380000Y-116390000D03*
D18*
X92620000Y-98610000D03*
D17*
X92620000Y-101150000D03*
X92620000Y-103690000D03*
X92620000Y-106230000D03*
X92620000Y-108770000D03*
X92620000Y-111310000D03*
X92620000Y-113850000D03*
X92620000Y-116390000D03*
D19*
X65000000Y-160000000D03*
D15*
X166780000Y-132670000D03*
D12*
X156620000Y-132670000D03*
D15*
X139820000Y-76520000D03*
D12*
X149980000Y-76520000D03*
D15*
X123700000Y-40640000D03*
X123700000Y-45720000D03*
X139820000Y-43500000D03*
D12*
X149980000Y-43500000D03*
D15*
X139820000Y-46040000D03*
D12*
X149980000Y-46040000D03*
D20*
X157500000Y-145000000D03*
D17*
X160040000Y-145000000D03*
X162580000Y-145000000D03*
D21*
X65000000Y-62500000D03*
D17*
X65000000Y-59960000D03*
X65000000Y-57420000D03*
X65000000Y-54880000D03*
X65000000Y-52340000D03*
D15*
X135895000Y-104010000D03*
D12*
X135895000Y-114170000D03*
D16*
X137220000Y-40950000D03*
D17*
X137220000Y-43490000D03*
X137220000Y-46030000D03*
X137220000Y-48570000D03*
X137220000Y-51110000D03*
X137220000Y-53650000D03*
X137220000Y-56190000D03*
X137220000Y-58730000D03*
X137220000Y-61270000D03*
X137220000Y-63810000D03*
X137220000Y-66350000D03*
X137220000Y-68890000D03*
X137220000Y-71430000D03*
X137220000Y-73970000D03*
X137220000Y-76510000D03*
X137220000Y-79050000D03*
X152460000Y-68890000D03*
X152460000Y-66350000D03*
X152460000Y-63810000D03*
X152460000Y-61270000D03*
X152460000Y-58730000D03*
X152460000Y-56190000D03*
X152460000Y-53650000D03*
D18*
X152460000Y-51110000D03*
D20*
X105000000Y-160000000D03*
D17*
X107540000Y-160000000D03*
X110080000Y-160000000D03*
D19*
X65000000Y-40000000D03*
D11*
X120000000Y-90000000D03*
D12*
X120000000Y-87460000D03*
X120000000Y-84920000D03*
X120000000Y-82380000D03*
X120000000Y-79840000D03*
X120000000Y-77300000D03*
X120000000Y-74760000D03*
X120000000Y-72220000D03*
X120000000Y-69680000D03*
X112380000Y-69680000D03*
X112380000Y-72220000D03*
X112380000Y-74760000D03*
X112380000Y-77300000D03*
X112380000Y-79840000D03*
X112380000Y-82380000D03*
X112380000Y-84920000D03*
X112380000Y-87460000D03*
X112380000Y-90000000D03*
D15*
X139820000Y-71440000D03*
D12*
X149980000Y-71440000D03*
D20*
X104920000Y-145000000D03*
D17*
X107460000Y-145000000D03*
X110000000Y-145000000D03*
D15*
X139820000Y-51120000D03*
D12*
X149980000Y-51120000D03*
D20*
X122500000Y-160000000D03*
D17*
X125040000Y-160000000D03*
X127580000Y-160000000D03*
D15*
X139820000Y-66360000D03*
D12*
X149980000Y-66360000D03*
D21*
X180000000Y-120000000D03*
D17*
X177460000Y-120000000D03*
X180000000Y-117460000D03*
X177460000Y-117460000D03*
X180000000Y-114920000D03*
X177460000Y-114920000D03*
X180000000Y-112380000D03*
X177460000Y-112380000D03*
X180000000Y-109840000D03*
X177460000Y-109840000D03*
X180000000Y-107300000D03*
X177460000Y-107300000D03*
X180000000Y-104760000D03*
X177460000Y-104760000D03*
X180000000Y-102220000D03*
X177460000Y-102220000D03*
X180000000Y-99680000D03*
X177460000Y-99680000D03*
X180000000Y-97140000D03*
X177460000Y-97140000D03*
X180000000Y-94600000D03*
X177460000Y-94600000D03*
X180000000Y-92060000D03*
X177460000Y-92060000D03*
X180000000Y-89520000D03*
X177460000Y-89520000D03*
X180000000Y-86980000D03*
X177460000Y-86980000D03*
X180000000Y-84440000D03*
X177460000Y-84440000D03*
X180000000Y-81900000D03*
X177460000Y-81900000D03*
X180000000Y-79360000D03*
X177460000Y-79360000D03*
X180000000Y-76820000D03*
X177460000Y-76820000D03*
X180000000Y-74280000D03*
X177460000Y-74280000D03*
X180000000Y-71740000D03*
X177460000Y-71740000D03*
D20*
X140000000Y-160000000D03*
D17*
X142540000Y-160000000D03*
X145080000Y-160000000D03*
D20*
X157500000Y-160000000D03*
D17*
X160040000Y-160000000D03*
X162580000Y-160000000D03*
D15*
X133355000Y-104010000D03*
D12*
X133355000Y-114170000D03*
D15*
X170000000Y-157580000D03*
D12*
X170000000Y-147420000D03*
D15*
X139820000Y-58740000D03*
D12*
X149980000Y-58740000D03*
D15*
X139820000Y-40960000D03*
D12*
X149980000Y-40960000D03*
D15*
X124625000Y-127810000D03*
X124625000Y-122730000D03*
D20*
X122500000Y-145000000D03*
D17*
X125040000Y-145000000D03*
X127580000Y-145000000D03*
D15*
X123700000Y-69680000D03*
X123700000Y-74760000D03*
X139820000Y-68900000D03*
D12*
X149980000Y-68900000D03*
D15*
X138435000Y-104010000D03*
D12*
X138435000Y-114170000D03*
D22*
X128275000Y-127810000D03*
D12*
X130815000Y-127810000D03*
X133355000Y-127810000D03*
X135895000Y-127810000D03*
X138435000Y-127810000D03*
X140975000Y-127810000D03*
X143515000Y-127810000D03*
X146055000Y-127810000D03*
X148595000Y-127810000D03*
X151135000Y-127810000D03*
X151135000Y-120190000D03*
X148595000Y-120190000D03*
X146055000Y-120190000D03*
X143515000Y-120190000D03*
X140975000Y-120190000D03*
X138435000Y-120190000D03*
X135895000Y-120190000D03*
X133355000Y-120190000D03*
X130815000Y-120190000D03*
X128275000Y-120190000D03*
D21*
X65000000Y-85000000D03*
D17*
X65000000Y-82460000D03*
X65000000Y-79920000D03*
X65000000Y-77380000D03*
X65000000Y-74840000D03*
D15*
X146055000Y-104010000D03*
D12*
X146055000Y-114170000D03*
D19*
X195000000Y-40000000D03*
D15*
X139820000Y-56200000D03*
D12*
X149980000Y-56200000D03*
D15*
X90000000Y-91500000D03*
D12*
X100160000Y-91500000D03*
D15*
X139820000Y-48580000D03*
D12*
X149980000Y-48580000D03*
D15*
X140975000Y-104010000D03*
D12*
X140975000Y-114170000D03*
D15*
X139820000Y-53660000D03*
D12*
X149980000Y-53660000D03*
D15*
X139820000Y-73980000D03*
D12*
X149980000Y-73980000D03*
D19*
X195000000Y-160000000D03*
D15*
X139820000Y-79060000D03*
D12*
X149980000Y-79060000D03*
D20*
X140000000Y-145000000D03*
D17*
X142540000Y-145000000D03*
X145080000Y-145000000D03*
D15*
X139820000Y-63820000D03*
D12*
X149980000Y-63820000D03*
D21*
X195000000Y-120000000D03*
D17*
X192460000Y-120000000D03*
X195000000Y-117460000D03*
X192460000Y-117460000D03*
X195000000Y-114920000D03*
X192460000Y-114920000D03*
X195000000Y-112380000D03*
X192460000Y-112380000D03*
X195000000Y-109840000D03*
X192460000Y-109840000D03*
X195000000Y-107300000D03*
X192460000Y-107300000D03*
X195000000Y-104760000D03*
X192460000Y-104760000D03*
X195000000Y-102220000D03*
X192460000Y-102220000D03*
X195000000Y-99680000D03*
X192460000Y-99680000D03*
X195000000Y-97140000D03*
X192460000Y-97140000D03*
X195000000Y-94600000D03*
X192460000Y-94600000D03*
X195000000Y-92060000D03*
X192460000Y-92060000D03*
X195000000Y-89520000D03*
X192460000Y-89520000D03*
X195000000Y-86980000D03*
X192460000Y-86980000D03*
X195000000Y-84440000D03*
X192460000Y-84440000D03*
X195000000Y-81900000D03*
X192460000Y-81900000D03*
X195000000Y-79360000D03*
X192460000Y-79360000D03*
X195000000Y-76820000D03*
X192460000Y-76820000D03*
X195000000Y-74280000D03*
X192460000Y-74280000D03*
X195000000Y-71740000D03*
X192460000Y-71740000D03*
D16*
X77380000Y-128610000D03*
D17*
X77380000Y-131150000D03*
X77380000Y-133690000D03*
X77380000Y-136230000D03*
X77380000Y-138770000D03*
X77380000Y-141310000D03*
X77380000Y-143850000D03*
X77380000Y-146390000D03*
D18*
X92620000Y-128610000D03*
D17*
X92620000Y-131150000D03*
X92620000Y-133690000D03*
X92620000Y-136230000D03*
X92620000Y-138770000D03*
X92620000Y-141310000D03*
X92620000Y-143850000D03*
X92620000Y-146390000D03*
M02*
