M48
; DRILL file {KiCad (6.0.2)} date Sun Jan 22 22:47:28 2023
; FORMAT={-:-/ absolute / metric / decimal}
; #@! TF.CreationDate,2023-01-22T22:47:28-05:00
; #@! TF.GenerationSoftware,Kicad,Pcbnew,(6.0.2)
; #@! TF.FileFunction,Plated,1,2,PTH
FMAT,2
METRIC
; #@! TA.AperFunction,Plated,PTH,ViaDrill
T1C0.400
; #@! TA.AperFunction,Plated,PTH,ViaDrill
T2C0.500
; #@! TA.AperFunction,Plated,PTH,ComponentDrill
T3C0.800
; #@! TA.AperFunction,Plated,PTH,ComponentDrill
T4C1.000
; #@! TA.AperFunction,Plated,PTH,ComponentDrill
T5C3.200
%
G90
G05
T1
X89.5Y-104.5
X89.5Y-108.0
X89.5Y-132.0
X89.5Y-135.5
X131.0Y-133.0
X131.0Y-136.0
X133.5Y-133.0
X133.5Y-136.0
X136.0Y-133.0
X136.0Y-136.0
X138.5Y-133.0
X138.5Y-136.0
X141.0Y-133.0
X141.0Y-136.0
X143.5Y-133.0
X143.5Y-136.0
X158.25Y-128.4
X163.8Y-126.2
X167.0Y-112.0
X167.5Y-78.25
X168.0Y-106.0
X169.745Y-78.255
X177.46Y-133.0
X181.75Y-112.0
X181.8Y-107.0
X182.0Y-74.0
X182.0Y-76.75
X182.0Y-81.75
X182.0Y-86.75
X182.0Y-91.8
X182.0Y-94.4
X182.0Y-99.5
X182.0Y-102.0
T2
X72.0Y-50.0
X72.0Y-67.0
X72.0Y-91.5
X81.0Y-91.5
X156.0Y-51.0
X176.0Y-147.5
X181.75Y-117.25
X181.8Y-119.65
X194.985Y-61.985
X195.0Y-124.5
T3
X90.0Y-91.5
X100.16Y-91.5
X112.38Y-40.64
X112.38Y-43.18
X112.38Y-45.72
X112.38Y-48.26
X112.38Y-50.8
X112.38Y-53.34
X112.38Y-55.88
X112.38Y-58.42
X112.38Y-60.96
X112.38Y-69.68
X112.38Y-72.22
X112.38Y-74.76
X112.38Y-77.3
X112.38Y-79.84
X112.38Y-82.38
X112.38Y-84.92
X112.38Y-87.46
X112.38Y-90.0
X120.0Y-40.64
X120.0Y-43.18
X120.0Y-45.72
X120.0Y-48.26
X120.0Y-50.8
X120.0Y-53.34
X120.0Y-55.88
X120.0Y-58.42
X120.0Y-60.96
X120.0Y-69.68
X120.0Y-72.22
X120.0Y-74.76
X120.0Y-77.3
X120.0Y-79.84
X120.0Y-82.38
X120.0Y-84.92
X120.0Y-87.46
X120.0Y-90.0
X123.7Y-40.64
X123.7Y-45.72
X123.7Y-69.68
X123.7Y-74.76
X124.625Y-122.73
X124.625Y-127.81
X128.275Y-120.19
X128.275Y-127.81
X130.815Y-120.19
X130.815Y-127.81
X133.355Y-104.01
X133.355Y-114.17
X133.355Y-120.19
X133.355Y-127.81
X135.895Y-104.01
X135.895Y-114.17
X135.895Y-120.19
X135.895Y-127.81
X138.435Y-104.01
X138.435Y-114.17
X138.435Y-120.19
X138.435Y-127.81
X139.82Y-40.96
X139.82Y-43.5
X139.82Y-46.04
X139.82Y-48.58
X139.82Y-51.12
X139.82Y-53.66
X139.82Y-56.2
X139.82Y-58.74
X139.82Y-61.28
X139.82Y-63.82
X139.82Y-66.36
X139.82Y-68.9
X139.82Y-71.44
X139.82Y-73.98
X139.82Y-76.52
X139.82Y-79.06
X140.975Y-104.01
X140.975Y-114.17
X140.975Y-120.19
X140.975Y-127.81
X143.515Y-104.01
X143.515Y-114.17
X143.515Y-120.19
X143.515Y-127.81
X146.055Y-104.01
X146.055Y-114.17
X146.055Y-120.19
X146.055Y-127.81
X148.595Y-120.19
X148.595Y-127.81
X149.98Y-40.96
X149.98Y-43.5
X149.98Y-46.04
X149.98Y-48.58
X149.98Y-51.12
X149.98Y-53.66
X149.98Y-56.2
X149.98Y-58.74
X149.98Y-61.28
X149.98Y-63.82
X149.98Y-66.36
X149.98Y-68.9
X149.98Y-71.44
X149.98Y-73.98
X149.98Y-76.52
X149.98Y-79.06
X151.135Y-120.19
X151.135Y-127.81
X156.92Y-132.5
X167.08Y-132.5
X170.0Y-147.42
X170.0Y-157.58
X181.92Y-139.0
X181.92Y-144.0
X187.42Y-133.0
X192.08Y-139.0
X192.08Y-144.0
X197.58Y-133.0
T4
X65.0Y-52.34
X65.0Y-54.88
X65.0Y-57.42
X65.0Y-59.96
X65.0Y-62.5
X65.0Y-74.84
X65.0Y-77.38
X65.0Y-79.92
X65.0Y-82.46
X65.0Y-85.0
X77.38Y-98.61
X77.38Y-101.15
X77.38Y-103.69
X77.38Y-106.23
X77.38Y-108.77
X77.38Y-111.31
X77.38Y-113.85
X77.38Y-116.39
X77.38Y-126.11
X77.38Y-128.65
X77.38Y-131.19
X77.38Y-133.73
X77.38Y-136.27
X77.38Y-138.81
X77.38Y-141.35
X77.38Y-143.89
X92.62Y-98.61
X92.62Y-101.15
X92.62Y-103.69
X92.62Y-106.23
X92.62Y-108.77
X92.62Y-111.31
X92.62Y-113.85
X92.62Y-116.39
X92.62Y-126.11
X92.62Y-128.65
X92.62Y-131.19
X92.62Y-133.73
X92.62Y-136.27
X92.62Y-138.81
X92.62Y-141.35
X92.62Y-143.89
X104.92Y-145.0
X105.0Y-160.0
X107.46Y-145.0
X107.54Y-160.0
X110.0Y-145.0
X110.08Y-160.0
X122.5Y-145.0
X122.5Y-160.0
X125.04Y-145.0
X125.04Y-160.0
X127.58Y-145.0
X127.58Y-160.0
X137.22Y-40.95
X137.22Y-43.49
X137.22Y-46.03
X137.22Y-48.57
X137.22Y-51.11
X137.22Y-53.65
X137.22Y-56.19
X137.22Y-58.73
X137.22Y-61.27
X137.22Y-63.81
X137.22Y-66.35
X137.22Y-68.89
X137.22Y-71.43
X137.22Y-73.97
X137.22Y-76.51
X137.22Y-79.05
X140.0Y-145.0
X140.0Y-160.0
X142.54Y-145.0
X142.54Y-160.0
X145.08Y-145.0
X145.08Y-160.0
X152.46Y-51.11
X152.46Y-53.65
X152.46Y-56.19
X152.46Y-58.73
X152.46Y-61.27
X152.46Y-63.81
X152.46Y-66.35
X152.46Y-68.89
X157.5Y-145.0
X157.5Y-160.0
X157.59Y-115.5
X160.04Y-145.0
X160.04Y-160.0
X162.58Y-145.0
X162.58Y-160.0
X164.41Y-115.5
X177.46Y-71.74
X177.46Y-74.28
X177.46Y-76.82
X177.46Y-79.36
X177.46Y-81.9
X177.46Y-84.44
X177.46Y-86.98
X177.46Y-89.52
X177.46Y-92.06
X177.46Y-94.6
X177.46Y-97.14
X177.46Y-99.68
X177.46Y-102.22
X177.46Y-104.76
X177.46Y-107.3
X177.46Y-109.84
X177.46Y-112.38
X177.46Y-114.92
X177.46Y-117.46
X177.46Y-120.0
X180.0Y-71.74
X180.0Y-74.28
X180.0Y-76.82
X180.0Y-79.36
X180.0Y-81.9
X180.0Y-84.44
X180.0Y-86.98
X180.0Y-89.52
X180.0Y-92.06
X180.0Y-94.6
X180.0Y-97.14
X180.0Y-99.68
X180.0Y-102.22
X180.0Y-104.76
X180.0Y-107.3
X180.0Y-109.84
X180.0Y-112.38
X180.0Y-114.92
X180.0Y-117.46
X180.0Y-120.0
X184.975Y-59.445
X184.975Y-61.985
X184.975Y-64.525
X192.46Y-71.74
X192.46Y-74.28
X192.46Y-76.82
X192.46Y-79.36
X192.46Y-81.9
X192.46Y-84.44
X192.46Y-86.98
X192.46Y-89.52
X192.46Y-92.06
X192.46Y-94.6
X192.46Y-97.14
X192.46Y-99.68
X192.46Y-102.22
X192.46Y-104.76
X192.46Y-107.3
X192.46Y-109.84
X192.46Y-112.38
X192.46Y-114.92
X192.46Y-117.46
X192.46Y-120.0
X195.0Y-71.74
X195.0Y-74.28
X195.0Y-76.82
X195.0Y-79.36
X195.0Y-81.9
X195.0Y-84.44
X195.0Y-86.98
X195.0Y-89.52
X195.0Y-92.06
X195.0Y-94.6
X195.0Y-97.14
X195.0Y-99.68
X195.0Y-102.22
X195.0Y-104.76
X195.0Y-107.3
X195.0Y-109.84
X195.0Y-112.38
X195.0Y-114.92
X195.0Y-117.46
X195.0Y-120.0
T5
X65.0Y-40.0
X65.0Y-160.0
X195.0Y-40.0
X195.0Y-160.0
T4
X84.0Y-150.0G85X86.0Y-150.0
G05
X84.0Y-156.0G85X86.0Y-156.0
G05
X89.7Y-154.0G85X89.7Y-152.0
G05
X98.0Y-40.0G85X98.0Y-42.0
G05
X100.0Y-45.7G85X102.0Y-45.7
G05
X104.0Y-40.0G85X104.0Y-42.0
G05
X185.0Y-51.0G85X185.0Y-49.0
G05
X189.0Y-45.3G85X187.0Y-45.3
G05
X191.0Y-51.0G85X191.0Y-49.0
G05
T0
M30
